Newsreader6pt-BoldItalic.ufo
<glyph name="A" format="2">
  <advance width="1752.088"/>
  <unicode hex="0041"/>
  <anchor x="1101.5120000000002" y="1414.0" name="UCtop"/>
  <anchor x="648.288" y="0.0" name="bottom"/>
  <anchor x="1437.824" y="0.0" name="right"/>
  <outline>
    <contour>
      <point x="384.248" y="418.272" type="line"/>
      <point x="1087.632" y="418.272" type="line"/>
      <point x="1154.424" y="614.168" type="line"/>
      <point x="450.688" y="614.168" type="line"/>
    </contour>
    <contour>
      <point x="1471.1599999999999" y="157.96" type="line"/>
      <point x="1351.904" y="1421.04" type="line"/>
      <point x="891.264" y="1421.04" type="line"/>
      <point x="66.04" y="156.01600000000002" type="line"/>
      <point x="-94.0" y="105.18400000000001" type="line"/>
      <point x="-127.59200000000001" y="0.0" type="line"/>
      <point x="432.048" y="0.0" type="line"/>
      <point x="464.64" y="105.18400000000001" type="line"/>
      <point x="313.304" y="156.01600000000002" type="line"/>
      <point x="1042.048" y="1302.3039999999999" type="line"/>
      <point x="983.592" y="1295.176" type="line"/>
      <point x="1069.8880000000001" y="156.664" type="line"/>
      <point x="894.144" y="105.18400000000001" type="line"/>
      <point x="859.904" y="0.0" type="line"/>
      <point x="1604.4560000000001" y="0.0" type="line"/>
      <point x="1638.048" y="105.18400000000001" type="line"/>
    </contour>
  </outline>
</glyph>
<glyph name="C" format="2">
  <advance width="1573.32"/>
  <unicode hex="0043"/>
  <anchor x="1052.728" y="1414.0" name="UCtop"/>
  <anchor x="783.9680000000001" y="0.0" name="bottom"/>
  <anchor x="1305.424" y="0.0" name="right"/>
  <outline>
    <contour>
      <point x="1231.976" y="235.80800000000002" type="line"/>
      <point x="1132.712" y="203.472"/>
      <point x="1023.0400000000001" y="182.84"/>
      <point x="946.048" y="182.84" type="curve" smooth="yes"/>
      <point x="693.5600000000001" y="182.84"/>
      <point x="552.296" y="300.864"/>
      <point x="552.296" y="571.608" type="curve" smooth="yes"/>
      <point x="552.296" y="960.648"/>
      <point x="740.024" y="1215.792"/>
      <point x="1151.8000000000002" y="1215.792" type="curve" smooth="yes"/>
      <point x="1252.656" y="1215.792"/>
      <point x="1342.472" y="1195.904"/>
      <point x="1407.9599999999998" y="1150.2160000000001" type="curve"/>
      <point x="1324.808" y="1317.472" type="line"/>
      <point x="1365.5520000000001" y="918.528" type="line"/>
      <point x="1552.616" y="918.528" type="line"/>
      <point x="1647.168" y="1502.144" type="line"/>
      <point x="1510.8960000000002" y="1502.144" type="line"/>
      <point x="1356.44" y="1363.872" type="line"/>
      <point x="1550.464" y="1374.648" type="line"/>
      <point x="1442.856" y="1415.48"/>
      <point x="1323.024" y="1440.48"/>
      <point x="1170.472" y="1440.48" type="curve" smooth="yes"/>
      <point x="475.712" y="1440.48"/>
      <point x="156.448" y="1060.888"/>
      <point x="156.448" y="556.608" type="curve" smooth="yes"/>
      <point x="156.448" y="213.68"/>
      <point x="356.04" y="-26.48"/>
      <point x="828.4159999999999" y="-26.48" type="curve" smooth="yes"/>
      <point x="1032.04" y="-26.48"/>
      <point x="1178.672" y="0.27999999999999936"/>
      <point x="1305.688" y="38.208" type="curve"/>
      <point x="1488.848" y="480.008" type="line"/>
      <point x="1308.208" y="480.008" type="line"/>
      <point x="998.704" y="90.648" type="line"/>
    </contour>
  </outline>
</glyph>
<glyph name="E" format="2">
  <advance width="1578.432"/>
  <unicode hex="0045"/>
  <anchor x="1037.856" y="1414.0" name="UCtop"/>
  <anchor x="1161.336" y="0.0" name="right"/>
  <anchor x="641.896" y="0.0" name="bottom"/>
  <outline>
    <contour>
      <point x="493.6" y="1256.0400000000002" type="line"/>
      <point x="154.784" y="160.552" type="line"/>
      <point x="-21.664" y="105.18400000000001" type="line"/>
      <point x="-53.96" y="0.0" type="line"/>
      <point x="510.888" y="0.0" type="line"/>
      <point x="946.128" y="1414.0" type="line"/>
      <point x="361.744" y="1414.0" type="line"/>
      <point x="330.096" y="1308.816" type="line"/>
    </contour>
    <contour>
      <point x="1415.888" y="1333.5759999999998" type="line"/>
      <point x="1408.848" y="1008.9519999999999" type="line"/>
      <point x="1581.376" y="1008.9519999999999" type="line"/>
      <point x="1708.6" y="1502.144" type="line"/>
      <point x="1584.16" y="1502.144" type="line"/>
      <point x="1460.1280000000002" y="1414.0" type="line"/>
      <point x="746.7760000000001" y="1414.0" type="line"/>
      <point x="687.1120000000001" y="1210.9759999999999" type="line"/>
      <point x="1465.072" y="1210.9759999999999" type="line"/>
    </contour>
    <contour>
      <point x="1062.088" y="-92.088" type="line"/>
      <point x="1206.416" y="-92.088" type="line"/>
      <point x="1511.888" y="468.00800000000004" type="line"/>
      <point x="1338.008" y="468.00800000000004" type="line"/>
      <point x="961.264" y="84.96000000000001" type="line"/>
      <point x="1163.448" y="203.024" type="line"/>
      <point x="375.736" y="203.024" type="line"/>
      <point x="314.776" y="0.0" type="line"/>
      <point x="1026.68" y="0.0" type="line"/>
    </contour>
    <contour>
      <point x="1097.696" y="480.0" type="line"/>
      <point x="1175.696" y="735.0" type="line"/>
      <point x="1253.696" y="990.0" type="line"/>
      <point x="1098.592" y="990.0" type="line"/>
      <point x="1032.776" y="828.7919999999999" type="line"/>
      <point x="568.6080000000001" y="828.7919999999999" type="line"/>
      <point x="511.592" y="645.2080000000001" type="line"/>
      <point x="977.408" y="645.2080000000001" type="line"/>
      <point x="942.592" y="480.0" type="line"/>
    </contour>
  </outline>
</glyph>
<glyph name="F" format="2">
  <advance width="1462.8239999999998"/>
  <unicode hex="0046"/>
  <anchor x="993.248" y="1414.0" name="UCtop"/>
  <anchor x="308.392" y="0.0" name="bottom"/>
  <outline>
    <contour>
      <point x="1203.552" y="904.928" type="line"/>
      <point x="1048.448" y="904.928" type="line"/>
      <point x="982.632" y="743.72" type="line"/>
      <point x="518.4639999999999" y="743.72" type="line"/>
      <point x="461.44800000000004" y="560.1360000000001" type="line"/>
      <point x="927.264" y="560.1360000000001" type="line"/>
      <point x="892.448" y="394.928" type="line"/>
      <point x="1047.552" y="394.928" type="line"/>
      <point x="1125.552" y="649.928" type="line"/>
    </contour>
    <contour>
      <point x="1542.9520000000002" y="973.88" type="line"/>
      <point x="1683.1360000000002" y="1502.144" type="line"/>
      <point x="1558.696" y="1502.144" type="line"/>
      <point x="1434.664" y="1414.0" type="line"/>
      <point x="746.776" y="1414.0" type="line"/>
      <point x="687.112" y="1210.9759999999999" type="line"/>
      <point x="1439.608" y="1210.9759999999999" type="line"/>
      <point x="1390.424" y="1330.76" type="line"/>
      <point x="1370.424" y="973.88" type="line"/>
    </contour>
    <contour>
      <point x="558.7760000000001" y="157.96" type="line"/>
      <point x="946.128" y="1414.0" type="line"/>
      <point x="361.744" y="1414.0" type="line"/>
      <point x="330.096" y="1308.816" type="line"/>
      <point x="493.6" y="1256.0400000000002" type="line"/>
      <point x="154.784" y="160.552" type="line"/>
      <point x="-21.664" y="105.18400000000001" type="line"/>
      <point x="-53.96" y="0.0" type="line"/>
      <point x="690.6320000000001" y="0.0" type="line"/>
      <point x="721.28" y="105.18400000000001" type="line"/>
    </contour>
  </outline>
</glyph>
<glyph name="G" format="2">
  <advance width="1747.144"/>
  <unicode hex="0047"/>
  <anchor x="1068.096" y="1414.0" name="UCtop"/>
  <anchor x="822.2959999999999" y="0.0" name="bottom"/>
  <outline>
    <contour>
      <point x="942.512" y="182.84" type="curve" smooth="yes"/>
      <point x="703.6320000000001" y="182.84"/>
      <point x="548.76" y="302.15999999999997"/>
      <point x="548.76" y="578.6479999999999" type="curve" smooth="yes"/>
      <point x="548.76" y="957.336"/>
      <point x="741.04" y="1215.792"/>
      <point x="1130.376" y="1215.792" type="curve" smooth="yes"/>
      <point x="1247.008" y="1215.792"/>
      <point x="1354.5439999999999" y="1200.2"/>
      <point x="1425.976" y="1150.2160000000001" type="curve"/>
      <point x="1366.8" y="1317.472" type="line"/>
      <point x="1407.5439999999999" y="918.528" type="line"/>
      <point x="1594.608" y="918.528" type="line"/>
      <point x="1689.16" y="1502.144" type="line"/>
      <point x="1552.888" y="1502.144" type="line"/>
      <point x="1398.432" y="1363.872" type="line"/>
      <point x="1568.48" y="1374.648" type="line"/>
      <point x="1451.744" y="1419.0720000000001"/>
      <point x="1319.8400000000001" y="1440.48"/>
      <point x="1153.272" y="1440.48" type="curve" smooth="yes"/>
      <point x="501.24" y="1440.48"/>
      <point x="154.856" y="1071.904"/>
      <point x="154.856" y="551.424" type="curve" smooth="yes"/>
      <point x="154.856" y="203.83200000000002"/>
      <point x="389.896" y="-26.48"/>
      <point x="880.448" y="-26.48" type="curve" smooth="yes"/>
      <point x="1141.824" y="-26.48"/>
      <point x="1330.72" y="9.023999999999997"/>
      <point x="1524.088" y="77.82399999999998" type="curve"/>
      <point x="1583.896" y="223.424" type="line"/>
      <point x="1445.5439999999999" y="223.424" type="line"/>
      <point x="1534.768" y="515.8000000000001" type="line"/>
      <point x="1689.6399999999999" y="570.5200000000001" type="line"/>
      <point x="1721.936" y="676.352" type="line"/>
      <point x="977.344" y="676.352" type="line"/>
      <point x="946.696" y="570.5200000000001" type="line"/>
      <point x="1131.424" y="518.3919999999999" type="line"/>
      <point x="996.0" y="78.36" type="line"/>
      <point x="1214.0079999999998" y="238.976" type="line"/>
      <point x="1114.04" y="199.60000000000002"/>
      <point x="1012.8159999999999" y="182.84"/>
    </contour>
  </outline>
</glyph>
<glyph name="H" format="2">
  <advance width="1871.392"/>
  <unicode hex="0048"/>
  <anchor x="1187.752" y="1414.0" name="UCtop"/>
  <anchor x="789.952" y="0.0" name="bottom"/>
  <outline>
    <contour>
      <point x="493.33599999999996" y="620.432" type="line"/>
      <point x="1449.336" y="620.432" type="line"/>
      <point x="1502.056" y="823.456" type="line"/>
      <point x="547.0559999999999" y="823.456" type="line"/>
    </contour>
    <contour>
      <point x="493.6" y="1256.0400000000002" type="line"/>
      <point x="154.784" y="160.552" type="line"/>
      <point x="-21.664" y="105.18400000000001" type="line"/>
      <point x="-53.96" y="0.0" type="line"/>
      <point x="690.6320000000001" y="0.0" type="line"/>
      <point x="721.28" y="105.18400000000001" type="line"/>
      <point x="558.7760000000001" y="157.96" type="line"/>
      <point x="897.592" y="1253.4479999999999" type="line"/>
      <point x="1074.04" y="1308.816" type="line"/>
      <point x="1104.6879999999999" y="1414.0" type="line"/>
      <point x="361.744" y="1414.0" type="line"/>
      <point x="330.096" y="1308.816" type="line"/>
    </contour>
    <contour>
      <point x="1427.3200000000002" y="1256.0400000000002" type="line"/>
      <point x="1089.152" y="160.552" type="line"/>
      <point x="912.0559999999999" y="105.18400000000001" type="line"/>
      <point x="881.4079999999999" y="0.0" type="line"/>
      <point x="1624.3519999999999" y="0.0" type="line"/>
      <point x="1656.6480000000001" y="105.18400000000001" type="line"/>
      <point x="1492.4959999999999" y="157.96" type="line"/>
      <point x="1831.3120000000001" y="1253.4479999999999" type="line"/>
      <point x="2007.76" y="1308.816" type="line"/>
      <point x="2039.056" y="1414.0" type="line"/>
      <point x="1295.464" y="1414.0" type="line"/>
      <point x="1264.8159999999998" y="1308.816" type="line"/>
    </contour>
  </outline>
</glyph>
<glyph name="I" format="2">
  <advance width="937.672"/>
  <unicode hex="0049"/>
  <anchor x="733.072" y="1414.0" name="UCtop"/>
  <anchor x="496.272" y="0.0" name="right"/>
  <anchor x="317.952" y="0.0" name="bottom"/>
  <outline>
    <contour>
      <point x="493.6" y="1256.0400000000002" type="line"/>
      <point x="154.784" y="160.552" type="line"/>
      <point x="-21.664" y="105.18400000000001" type="line"/>
      <point x="-53.96" y="0.0" type="line"/>
      <point x="690.6320000000001" y="0.0" type="line"/>
      <point x="721.28" y="105.18400000000001" type="line"/>
      <point x="558.7760000000001" y="157.96" type="line"/>
      <point x="897.592" y="1253.4479999999999" type="line"/>
      <point x="1074.04" y="1308.816" type="line"/>
      <point x="1104.6879999999999" y="1414.0" type="line"/>
      <point x="361.744" y="1414.0" type="line"/>
      <point x="330.096" y="1308.816" type="line"/>
    </contour>
  </outline>
</glyph>
<glyph name="K" format="2">
  <advance width="1778.0320000000002"/>
  <unicode hex="004B"/>
  <anchor x="1156.016" y="1414.0" name="UCtop"/>
  <anchor x="849.496" y="0.0" name="bottom"/>
  <outline>
    <contour>
      <point x="1519.928" y="154.496" type="line"/>
      <point x="1161.264" y="900.944" type="line"/>
      <point x="1110.68" y="730.16" type="line"/>
      <point x="1741.272" y="1259.9279999999999" type="line"/>
      <point x="1912.032" y="1308.816" type="line"/>
      <point x="1945.272" y="1414.0" type="line"/>
      <point x="1363.232" y="1414.0" type="line"/>
      <point x="1329.64" y="1308.816" type="line"/>
      <point x="1464.4560000000001" y="1261.392" type="line"/>
      <point x="957.1600000000001" y="833.1600000000001" type="line"/>
      <point x="629.68" y="833.1600000000001" type="line"/>
      <point x="572.72" y="630.136" type="line"/>
      <point x="857.08" y="630.136" type="line"/>
      <point x="1095.048" y="109.24000000000001" type="line"/>
      <point x="1090.824" y="95.16000000000001" type="line"/>
      <point x="1061.752" y="0.0" type="line"/>
      <point x="1614.416" y="0.0" type="line"/>
      <point x="1649.0079999999998" y="111.18400000000001" type="line"/>
    </contour>
    <contour>
      <point x="493.6" y="1256.0400000000002" type="line"/>
      <point x="154.784" y="160.552" type="line"/>
      <point x="-21.664" y="105.18400000000001" type="line"/>
      <point x="-53.96" y="0.0" type="line"/>
      <point x="690.6320000000001" y="0.0" type="line"/>
      <point x="721.28" y="105.18400000000001" type="line"/>
      <point x="558.7760000000001" y="157.96" type="line"/>
      <point x="897.592" y="1253.4479999999999" type="line"/>
      <point x="1074.04" y="1308.816" type="line"/>
      <point x="1104.6879999999999" y="1414.0" type="line"/>
      <point x="361.744" y="1414.0" type="line"/>
      <point x="330.096" y="1308.816" type="line"/>
    </contour>
  </outline>
</glyph>
<glyph name="L" format="2">
  <advance width="1439.8"/>
  <unicode hex="004C"/>
  <anchor x="741.816" y="1414.0" name="UCtop"/>
  <anchor x="1149.384" y="1414.0" name="right"/>
  <anchor x="567.432" y="0.0" name="bottom"/>
  <anchor x="1302.256" y="825.136" name="mid"/>
  <outline>
    <contour>
      <point x="897.592" y="1253.4479999999999" type="line"/>
      <point x="1074.04" y="1308.816" type="line"/>
      <point x="1104.688" y="1414.0" type="line"/>
      <point x="361.74399999999997" y="1414.0" type="line"/>
      <point x="330.096" y="1308.816" type="line"/>
      <point x="493.6" y="1256.04" type="line"/>
      <point x="154.78400000000002" y="160.552" type="line"/>
      <point x="-21.664" y="105.184" type="line"/>
      <point x="-53.96" y="0.0" type="line"/>
      <point x="510.88800000000003" y="0.0" type="line"/>
    </contour>
    <contour>
      <point x="871.784" y="102.4" type="line"/>
      <point x="1029.608" y="203.024" type="line"/>
      <point x="225.696" y="203.024" type="line"/>
      <point x="164.73600000000002" y="0.0" type="line"/>
      <point x="927.832" y="0.0" type="line"/>
      <point x="989.16" y="-92.088" type="line"/>
      <point x="1133.488" y="-92.088" type="line"/>
      <point x="1398.848" y="526.8" type="line"/>
      <point x="1223.6719999999998" y="526.8000000000001" type="line"/>
    </contour>
  </outline>
</glyph>
<glyph name="M" format="2">
  <advance width="2290.696"/>
  <unicode hex="004D"/>
  <anchor x="1341.6879999999999" y="1414.0" name="UCtop"/>
  <anchor x="922.768" y="0.0" name="bottom"/>
  <outline>
    <contour>
      <point x="771.176" y="1324.736" type="line"/>
      <point x="714.2560000000001" y="1291.52" type="line"/>
      <point x="688.3439999999999" y="0.0" type="line"/>
      <point x="1111.2079999999999" y="0.0" type="line"/>
      <point x="1889.384" y="1376.52" type="line"/>
      <point x="1899.68" y="1414.0" type="line"/>
      <point x="1684.344" y="1414.0" type="line"/>
      <point x="935.8159999999999" y="56.0" type="line"/>
      <point x="1076.744" y="102.008" type="line"/>
      <point x="1102.952" y="1414.0" type="line"/>
      <point x="385.896" y="1414.0" type="line"/>
      <point x="354.248" y="1308.816" type="line"/>
      <point x="527.6" y="1233.264" type="line"/>
      <point x="124.208" y="156.664" type="line"/>
      <point x="-49.144000000000005" y="105.184" type="line"/>
      <point x="-79.144" y="0.0" type="line"/>
      <point x="465.12" y="0.0" type="line"/>
      <point x="495.76800000000003" y="105.184" type="line"/>
      <point x="337.304" y="158.608" type="line"/>
    </contour>
    <contour>
      <point x="1826.608" y="1414.0" type="line"/>
      <point x="1547.232" y="160.552" type="line"/>
      <point x="1380.2079999999999" y="105.18400000000001" type="line"/>
      <point x="1348.912" y="0.0" type="line"/>
      <point x="2062.136" y="0.0" type="line"/>
      <point x="2093.784" y="105.18400000000001" type="line"/>
      <point x="1948.28" y="157.96" type="line"/>
      <point x="2199.4320000000002" y="1247.336" type="line"/>
      <point x="2381.9919999999997" y="1308.816" type="line"/>
      <point x="2413.288" y="1414.0" type="line"/>
    </contour>
  </outline>
</glyph>
<glyph name="O" format="2">
  <advance width="1745.92"/>
  <unicode hex="004F"/>
  <anchor x="1098.608" y="1414.0" name="UCtop"/>
  <anchor x="734.424" y="0.0" name="bottom"/>
  <anchor x="951.896" y="0.0" name="right"/>
  <anchor x="1448.672" y="1414.0" name="horn"/>
  <outline>
    <contour>
      <point x="535.0" y="497.56" type="curve" smooth="yes"/>
      <point x="535.0" y="857.0880000000001"/>
      <point x="711.792" y="1210.256"/>
      <point x="1044.176" y="1210.256" type="curve" smooth="yes"/>
      <point x="1234.544" y="1210.256"/>
      <point x="1325.9759999999999" y="1110.2079999999999"/>
      <point x="1325.9759999999999" y="916.4399999999999" type="curve" smooth="yes"/>
      <point x="1325.9759999999999" y="556.912"/>
      <point x="1149.184" y="203.744"/>
      <point x="816.8" y="203.744" type="curve" smooth="yes"/>
      <point x="626.4319999999999" y="203.744"/>
      <point x="535.0" y="303.79200000000003"/>
    </contour>
    <contour>
      <point x="1710.696" y="883.1519999999999" type="curve" smooth="yes"/>
      <point x="1710.696" y="1235.312"/>
      <point x="1496.9759999999999" y="1440.48"/>
      <point x="1055.064" y="1440.48" type="curve" smooth="yes"/>
      <point x="495.248" y="1440.48"/>
      <point x="150.28" y="1040.1200000000001"/>
      <point x="150.28" y="530.848" type="curve" smooth="yes"/>
      <point x="150.28" y="178.68800000000002"/>
      <point x="364.0" y="-26.48"/>
      <point x="805.912" y="-26.48" type="curve" smooth="yes"/>
      <point x="1365.728" y="-26.48"/>
      <point x="1710.696" y="373.88"/>
    </contour>
  </outline>
</glyph>
<glyph name="S" format="2">
  <advance width="1383.048"/>
  <unicode hex="0053"/>
  <anchor x="878.12" y="1414.0" name="UCtop"/>
  <anchor x="624.56" y="0.0" name="bottom"/>
  <outline>
    <contour>
      <point x="1209.0559999999998" y="1172.5120000000002" type="curve"/>
      <point x="1144.896" y="1287.016" type="line"/>
      <point x="1184.368" y="971.984" type="line"/>
      <point x="1361.432" y="971.984" type="line"/>
      <point x="1454.256" y="1502.144" type="line"/>
      <point x="1317.984" y="1502.144" type="line"/>
      <point x="1189.136" y="1367.112" type="line"/>
      <point x="1357.9759999999999" y="1352.536" type="line"/>
      <point x="1268.6399999999999" y="1410.944"/>
      <point x="1116.536" y="1440.48"/>
      <point x="955.984" y="1440.48" type="curve" smooth="yes"/>
      <point x="512.032" y="1440.48"/>
      <point x="273.008" y="1256.0"/>
      <point x="273.008" y="947.752" type="curve" smooth="yes"/>
      <point x="273.008" y="759.192"/>
      <point x="380.312" y="689.064"/>
      <point x="549.032" y="623.808" type="curve" smooth="yes"/>
      <point x="717.752" y="558.552"/>
      <point x="891.7280000000001" y="535.64"/>
      <point x="891.7280000000001" y="408.632" type="curve" smooth="yes"/>
      <point x="891.7280000000001" y="266.976"/>
      <point x="776.352" y="184.264"/>
      <point x="515.272" y="184.264" type="curve" smooth="yes"/>
      <point x="382.52" y="184.264"/>
      <point x="265.99199999999996" y="213.056"/>
      <point x="167.64800000000002" y="249.44" type="curve"/>
      <point x="393.024" y="26.392000000000003" type="line"/>
      <point x="252.64" y="481.952" type="line"/>
      <point x="86.832" y="481.952" type="line"/>
      <point x="79.504" y="27.464" type="line"/>
      <point x="177.912" y="0.29600000000000004"/>
      <point x="312.368" y="-26.48"/>
      <point x="483.94399999999996" y="-26.48" type="curve" smooth="yes"/>
      <point x="1002.8639999999999" y="-26.48"/>
      <point x="1260.7440000000001" y="183.66400000000002"/>
      <point x="1260.7440000000001" y="528.616" type="curve" smooth="yes"/>
      <point x="1260.7440000000001" y="749.304"/>
      <point x="1089.096" y="825.136"/>
      <point x="922.1519999999999" y="878.544" type="curve" smooth="yes"/>
      <point x="755.2080000000001" y="931.952"/>
      <point x="628.952" y="958.472"/>
      <point x="628.952" y="1067.072" type="curve" smooth="yes"/>
      <point x="628.952" y="1170.488"/>
      <point x="697.328" y="1233.44"/>
      <point x="938.8879999999999" y="1233.44" type="curve" smooth="yes"/>
      <point x="1037.9119999999998" y="1233.44"/>
      <point x="1152.168" y="1208.9759999999999"/>
    </contour>
  </outline>
</glyph>
<glyph name="U" format="2">
  <advance width="1710.5200000000002"/>
  <unicode hex="0055"/>
  <anchor x="1159.184" y="1414.0" name="UCtop"/>
  <anchor x="946.4240000000001" y="0.0" name="right"/>
  <anchor x="723.784" y="0.0" name="bottom"/>
  <anchor x="1723.504" y="1414.0" name="horn"/>
  <outline>
    <contour>
      <point x="628.072" y="544.032" type="curve" smooth="yes"/>
      <point x="847.3520000000001" y="1253.4479999999999" type="line"/>
      <point x="1023.8000000000001" y="1308.816" type="line"/>
      <point x="1054.4479999999999" y="1414.0" type="line"/>
      <point x="311.504" y="1414.0" type="line"/>
      <point x="279.85600000000005" y="1308.816" type="line"/>
      <point x="443.36" y="1256.0400000000002" type="line"/>
      <point x="235.416" y="584.984" type="line" smooth="yes"/>
      <point x="108.784" y="178.216"/>
      <point x="312.8" y="-26.48"/>
      <point x="770.784" y="-26.48" type="curve" smooth="yes"/>
      <point x="1167.384" y="-26.48"/>
      <point x="1360.624" y="131.296"/>
      <point x="1480.864" y="523.664" type="curve" smooth="yes"/>
      <point x="1706.032" y="1257.336" type="line"/>
      <point x="1885.72" y="1308.816" type="line"/>
      <point x="1915.368" y="1414.0" type="line"/>
      <point x="1343.3600000000001" y="1414.0" type="line"/>
      <point x="1313.0639999999999" y="1308.816" type="line"/>
      <point x="1487.288" y="1254.7440000000001" type="line"/>
      <point x="1271.08" y="549.304" type="line" smooth="yes"/>
      <point x="1200.912" y="319.096"/>
      <point x="1095.536" y="244.25600000000003"/>
      <point x="879.304" y="244.25600000000003" type="curve" smooth="yes"/>
      <point x="661.112" y="244.25600000000003"/>
      <point x="563.328" y="335.632"/>
    </contour>
  </outline>
</glyph>
<glyph name="Y" format="2">
  <advance width="1655.2959999999998"/>
  <unicode hex="0059"/>
  <anchor x="1094.496" y="1414.0" name="UCtop"/>
  <anchor x="693.632" y="0.0" name="bottom"/>
  <outline>
    <contour>
      <point x="1439.9759999999999" y="1251.5040000000001" type="line"/>
      <point x="915.4879999999999" y="686.368" type="line"/>
      <point x="1004.352" y="686.3679999999999" type="line"/>
      <point x="796.1840000000001" y="1245.672" type="line"/>
      <point x="960.352" y="1308.816" type="line"/>
      <point x="992.9440000000001" y="1414.0" type="line"/>
      <point x="269.98400000000004" y="1414.0" type="line"/>
      <point x="238.04" y="1308.816" type="line"/>
      <point x="402.04" y="1243.728" type="line"/>
      <point x="665.1120000000001" y="593.96" type="line"/>
      <point x="530.464" y="160.552" type="line"/>
      <point x="354.016" y="105.18400000000001" type="line"/>
      <point x="321.72" y="0.0" type="line"/>
      <point x="1066.312" y="0.0" type="line"/>
      <point x="1096.96" y="105.18400000000001" type="line"/>
      <point x="934.456" y="157.96" type="line"/>
      <point x="1071.456" y="598.1279999999999" type="line"/>
      <point x="1705.96" y="1257.984" type="line"/>
      <point x="1857.408" y="1308.816" type="line"/>
      <point x="1891.0" y="1414.0" type="line"/>
      <point x="1319.752" y="1414.0" type="line"/>
      <point x="1287.16" y="1308.816" type="line"/>
    </contour>
  </outline>
</glyph>
<glyph name="c" format="2">
  <advance width="1148.768"/>
  <unicode hex="0063"/>
  <anchor x="766.48" y="1036.96" name="top"/>
  <anchor x="885.1759999999999" y="0.0" name="right"/>
  <anchor x="470.712" y="0.0" name="bottom"/>
  <outline>
    <contour>
      <point x="744.576" y="917.04" type="curve" smooth="yes"/>
      <point x="790.0720000000001" y="917.04"/>
      <point x="832.256" y="870.192"/>
      <point x="874.0160000000001" y="808.192" type="curve" smooth="yes"/>
      <point x="915.776" y="746.192"/>
      <point x="947.832" y="691.92"/>
      <point x="970.8879999999999" y="691.92" type="curve" smooth="yes"/>
      <point x="1062.936" y="691.92"/>
      <point x="1147.08" y="760.288"/>
      <point x="1147.08" y="859.096" type="curve" smooth="yes"/>
      <point x="1147.08" y="974.24"/>
      <point x="1042.024" y="1063.44"/>
      <point x="793.4639999999999" y="1063.44" type="curve" smooth="yes"/>
      <point x="349.352" y="1063.44"/>
      <point x="72.928" y="755.5120000000001"/>
      <point x="72.928" y="378.192" type="curve" smooth="yes"/>
      <point x="72.928" y="99.77600000000001"/>
      <point x="211.12800000000001" y="-26.48"/>
      <point x="507.04" y="-26.48" type="curve" smooth="yes"/>
      <point x="769.384" y="-26.48"/>
      <point x="941.896" y="98.33600000000001"/>
      <point x="1056.024" y="401.856" type="curve"/>
      <point x="951.08" y="401.856" type="line"/>
      <point x="865.264" y="264.35200000000003"/>
      <point x="769.168" y="207.704"/>
      <point x="635.2800000000001" y="207.704" type="curve" smooth="yes"/>
      <point x="484.856" y="207.704"/>
      <point x="428.056" y="264.704"/>
      <point x="428.056" y="442.928" type="curve" smooth="yes"/>
      <point x="428.056" y="720.5120000000001"/>
      <point x="552.048" y="917.04"/>
    </contour>
  </outline>
</glyph>
<glyph name="i" format="2">
  <advance width="885.856"/>
  <unicode hex="0069"/>
  <anchor x="748.24" y="1414.0" name="top"/>
  <anchor x="272.568" y="0.0" name="bottom"/>
  <anchor x="523.44" y="0.0" name="right"/>
  <outline>
    <contour>
      <point x="145.056" y="214.28" type="line" smooth="yes"/>
      <point x="68.432" y="28.144000000000002"/>
      <point x="111.224" y="-26.48"/>
      <point x="257.176" y="-26.48" type="curve" smooth="yes"/>
      <point x="419.976" y="-26.48"/>
      <point x="609.9839999999999" y="30.312"/>
      <point x="841.312" y="209.104" type="curve"/>
      <point x="786.592" y="298.064" type="line"/>
      <point x="649.8879999999999" y="212.952"/>
      <point x="536.496" y="189.6"/>
      <point x="377.048" y="201.432" type="curve"/>
      <point x="467.536" y="88.888" type="line"/>
      <point x="767.52" y="822.68" type="line" smooth="yes"/>
      <point x="836.552" y="989.688"/>
      <point x="806.496" y="1063.44"/>
      <point x="620.7760000000001" y="1063.44" type="curve" smooth="yes"/>
      <point x="472.92" y="1063.44"/>
      <point x="299.70399999999995" y="1011.4079999999999"/>
      <point x="30.08" y="800.32" type="curve"/>
      <point x="91.096" y="712.008" type="line"/>
      <point x="259.856" y="824.4879999999999"/>
      <point x="366.76800000000003" y="848.656"/>
      <point x="519.328" y="841.36" type="curve"/>
      <point x="444.392" y="948.72" type="line"/>
    </contour>
    <contour>
      <point x="492.48" y="1309.6879999999999" type="curve" smooth="yes"/>
      <point x="492.48" y="1226.488"/>
      <point x="560.216" y="1180.896"/>
      <point x="709.056" y="1180.896" type="curve" smooth="yes"/>
      <point x="903.4639999999999" y="1180.896"/>
      <point x="970.704" y="1257.32"/>
      <point x="970.704" y="1361.6879999999999" type="curve" smooth="yes"/>
      <point x="970.704" y="1444.888"/>
      <point x="902.968" y="1490.48"/>
      <point x="754.128" y="1490.48" type="curve" smooth="yes"/>
      <point x="559.7199999999999" y="1490.48"/>
      <point x="492.48" y="1414.056"/>
    </contour>
  </outline>
</glyph>
<glyph name="k" format="2">
  <advance width="1427.08"/>
  <unicode hex="006B"/>
  <anchor x="918.088" y="1414.0" name="UCtop"/>
  <anchor x="599.992" y="0.0" name="bottom"/>
  <outline>
    <contour>
      <point x="843.0160000000001" y="1490.48" type="line"/>
      <point x="786.112" y="1490.48" type="line"/>
      <point x="204.176" y="1398.8" type="line"/>
      <point x="180.4" y="1301.288" type="line"/>
      <point x="237.4" y="1267.5723137254902"/>
      <point x="346.288" y="1202.7581176470587"/>
      <point x="382.28799999999995" y="1181.464" type="curve"/>
      <point x="20.152" y="0.0" type="line"/>
      <point x="387.424" y="0.0" type="line"/>
    </contour>
    <contour>
      <point x="541.648" y="560.984" type="line"/>
      <point x="698.544" y="73.27199999999999"/>
      <point x="780.456" y="-26.48"/>
      <point x="906.584" y="-26.48" type="curve" smooth="yes"/>
      <point x="1024.0" y="-26.48"/>
      <point x="1183.376" y="57.976"/>
      <point x="1352.32" y="255.2" type="curve"/>
      <point x="1290.7839999999999" y="333.176" type="line"/>
      <point x="1206.52" y="254.52"/>
      <point x="1160.2959999999998" y="224.608"/>
      <point x="1122.904" y="224.608" type="curve" smooth="yes"/>
      <point x="1052.384" y="224.608"/>
      <point x="996.5120000000001" y="317.88800000000003"/>
      <point x="825.248" y="769.1759999999999" type="curve"/>
      <point x="684.808" y="581.368" type="line"/>
      <point x="980.848" y="801.192"/>
      <point x="1026.896" y="826.2719999999999"/>
      <point x="1089.0800000000002" y="826.2719999999999" type="curve" smooth="yes"/>
      <point x="1117.688" y="826.2719999999999"/>
      <point x="1148.76" y="795.68"/>
      <point x="1177.24" y="760.736" type="curve" smooth="yes"/>
      <point x="1205.7199999999998" y="725.7919999999999"/>
      <point x="1233.2" y="682.072"/>
      <point x="1241.2" y="682.072" type="curve" smooth="yes"/>
      <point x="1320.416" y="682.072"/>
      <point x="1424.88" y="754.88"/>
      <point x="1424.88" y="895.4319999999999" type="curve" smooth="yes"/>
      <point x="1424.88" y="991.0"/>
      <point x="1361.68" y="1063.44"/>
      <point x="1233.352" y="1063.44" type="curve" smooth="yes"/>
      <point x="1078.776" y="1063.44"/>
      <point x="976.1200000000001" y="1002.0799999999999"/>
      <point x="567.736" y="609.144" type="curve"/>
    </contour>
  </outline>
</glyph>
<glyph name="p" format="2">
  <advance width="1451.448"/>
  <unicode hex="0070"/>
  <anchor x="872.08" y="1036.96" name="top"/>
  <anchor x="186.38400000000001" y="-438.52" name="bottom"/>
  <outline>
    <contour>
      <point x="560.256" y="316.16" type="curve" smooth="yes"/>
      <point x="594.536" y="441.11199999999997" type="line" smooth="yes"/>
      <point x="643.592" y="620.224"/>
      <point x="794.72" y="825.0160000000001"/>
      <point x="917.472" y="825.0160000000001" type="curve" smooth="yes"/>
      <point x="985.424" y="825.0160000000001"/>
      <point x="1021.744" y="781.68"/>
      <point x="1021.744" y="679.688" type="curve" smooth="yes"/>
      <point x="1021.744" y="412.816"/>
      <point x="861.016" y="126.288"/>
      <point x="683.0160000000001" y="126.288" type="curve" smooth="yes"/>
      <point x="594.744" y="126.288"/>
      <point x="548.072" y="173.792"/>
      <point x="548.072" y="244.184" type="curve" smooth="yes"/>
      <point x="548.072" y="262.12800000000004"/>
      <point x="550.72" y="281.368"/>
    </contour>
    <contour>
      <point x="384.81600000000003" y="163.31199999999998" type="line"/>
      <point x="397.28" y="37.112"/>
      <point x="523.424" y="-25.832"/>
      <point x="704.584" y="-25.832" type="curve" smooth="yes"/>
      <point x="1085.432" y="-25.832"/>
      <point x="1396.944" y="336.392"/>
      <point x="1396.944" y="735.4079999999999" type="curve" smooth="yes"/>
      <point x="1396.944" y="933.904"/>
      <point x="1295.352" y="1063.44"/>
      <point x="1094.56" y="1063.44" type="curve" smooth="yes"/>
      <point x="912.456" y="1063.44"/>
      <point x="767.0640000000001" y="947.3679999999999"/>
      <point x="614.1519999999999" y="664.352" type="curve"/>
      <point x="581.432" y="664.352" type="line"/>
      <point x="708.264" y="1056.2" type="line"/>
      <point x="651.232" y="1060.496"/>
      <point x="608.624" y="1061.496"/>
      <point x="536.448" y="1061.496" type="curve" smooth="yes"/>
      <point x="274.48" y="1061.496"/>
      <point x="118.09599999999999" y="980.0"/>
      <point x="50.32" y="679.6239999999999" type="curve"/>
      <point x="81.056" y="668.496" type="line"/>
      <point x="166.184" y="795.416"/>
      <point x="230.024" y="819.8639999999999"/>
      <point x="366.504" y="819.8639999999999" type="curve" smooth="yes"/>
      <point x="372.744" y="819.8639999999999"/>
      <point x="377.392" y="819.8639999999999"/>
      <point x="383.28" y="819.216" type="curve"/>
      <point x="52.088" y="-302.8" type="line"/>
      <point x="-77.4" y="-336.968" type="line"/>
      <point x="-105.99199999999999" y="-438.52" type="line"/>
      <point x="536.4639999999999" y="-438.52" type="line"/>
      <point x="567.352" y="-336.32" type="line"/>
      <point x="403.512" y="-302.152" type="line"/>
      <point x="540.328" y="163.31199999999998" type="line"/>
    </contour>
  </outline>
</glyph>
<glyph name="r" format="2">
  <advance width="1225.808"/>
  <unicode hex="0072"/>
  <anchor x="756.112" y="1036.96" name="top"/>
  <anchor x="312.47999999999996" y="0.0" name="bottom"/>
  <outline>
    <contour>
      <point x="379.688" y="817.2719999999999" type="curve"/>
      <point x="129.944" y="0.0" type="line"/>
      <point x="494.664" y="0.0" type="line"/>
      <point x="560.816" y="205.624" type="line" smooth="yes"/>
      <point x="677.496" y="566.48"/>
      <point x="823.584" y="790.2"/>
      <point x="947.5840000000001" y="790.2" type="curve" smooth="yes"/>
      <point x="969.952" y="790.2"/>
      <point x="1006.4879999999999" y="762.552"/>
      <point x="1039.728" y="732.9599999999999" type="curve" smooth="yes"/>
      <point x="1072.9679999999998" y="703.3679999999999"/>
      <point x="1108.744" y="669.24"/>
      <point x="1116.04" y="669.24" type="curve" smooth="yes"/>
      <point x="1190.808" y="669.24"/>
      <point x="1302.512" y="773.192"/>
      <point x="1302.512" y="900.08" type="curve" smooth="yes"/>
      <point x="1302.512" y="994.184"/>
      <point x="1242.312" y="1063.44"/>
      <point x="1114.816" y="1063.44" type="curve" smooth="yes"/>
      <point x="920.88" y="1063.44"/>
      <point x="772.824" y="915.28"/>
      <point x="577.968" y="487.64" type="curve"/>
      <point x="538.376" y="487.64" type="line"/>
      <point x="712.264" y="1054.904" type="line"/>
      <point x="649.4000000000001" y="1059.848"/>
      <point x="611.5120000000001" y="1060.848"/>
      <point x="528.32" y="1060.848" type="curve" smooth="yes"/>
      <point x="270.24" y="1060.848"/>
      <point x="124.872" y="978.704"/>
      <point x="57.096" y="677.0319999999999" type="curve"/>
      <point x="91.072" y="667.848" type="line"/>
      <point x="174.904" y="794.768"/>
      <point x="236.15200000000002" y="817.2719999999999"/>
      <point x="366.8" y="817.2719999999999" type="curve" smooth="yes"/>
      <point x="371.744" y="817.2719999999999"/>
      <point x="376.392" y="817.2719999999999"/>
    </contour>
  </outline>
</glyph>
<glyph name="s" format="2">
  <advance width="1096.32"/>
  <unicode hex="0073"/>
  <anchor x="681.648" y="1036.96" name="top"/>
  <anchor x="460.79999999999995" y="0.0" name="bottom"/>
  <outline>
    <contour>
      <point x="258.808" y="317.552" type="curve" smooth="yes"/>
      <point x="58.152" y="317.552"/>
      <point x="11.968" y="270.38399999999996"/>
      <point x="11.968" y="169.72" type="curve" smooth="yes"/>
      <point x="11.968" y="57.70400000000001"/>
      <point x="109.16799999999999" y="-26.48"/>
      <point x="390.616" y="-26.48" type="curve" smooth="yes"/>
      <point x="766.184" y="-26.48"/>
      <point x="966.7040000000001" y="105.40799999999999"/>
      <point x="966.7040000000001" y="370.248" type="curve" smooth="yes"/>
      <point x="966.7040000000001" y="514.76"/>
      <point x="901.192" y="592.8"/>
      <point x="704.304" y="653.544" type="curve" smooth="yes"/>
      <point x="507.416" y="714.288"/>
      <point x="482.36" y="744.456"/>
      <point x="482.36" y="807.624" type="curve" smooth="yes"/>
      <point x="482.36" y="879.424"/>
      <point x="544.832" y="921.576"/>
      <point x="680.3679999999999" y="921.576" type="curve" smooth="yes"/>
      <point x="729.904" y="921.576"/>
      <point x="763.6800000000001" y="914.688"/>
      <point x="793.16" y="890.4480000000001" type="curve" smooth="yes"/>
      <point x="822.6400000000001" y="866.208"/>
      <point x="843.176" y="818.912"/>
      <point x="858.5840000000001" y="740.336" type="curve" smooth="yes"/>
      <point x="1027.848" y="740.336"/>
      <point x="1080.48" y="788.208"/>
      <point x="1080.48" y="882.648" type="curve" smooth="yes"/>
      <point x="1080.48" y="993.592"/>
      <point x="979.96" y="1062.7920000000001"/>
      <point x="721.8320000000001" y="1062.7920000000001" type="curve" smooth="yes"/>
      <point x="376.0" y="1062.7920000000001"/>
      <point x="182.56" y="922.5360000000001"/>
      <point x="182.56" y="703.208" type="curve" smooth="yes"/>
      <point x="182.56" y="541.48"/>
      <point x="251.648" y="472.608"/>
      <point x="448.2" y="419.08799999999997" type="curve" smooth="yes"/>
      <point x="644.7520000000001" y="365.568"/>
      <point x="677.92" y="332.656"/>
      <point x="677.92" y="258.84000000000003" type="curve" smooth="yes"/>
      <point x="677.92" y="167.776"/>
      <point x="594.2239999999999" y="117.56800000000001"/>
      <point x="431.912" y="117.56800000000001" type="curve" smooth="yes"/>
      <point x="367.176" y="117.56800000000001"/>
      <point x="329.92" y="123.512"/>
      <point x="304.32800000000003" y="150.10399999999998" type="curve" smooth="yes"/>
      <point x="278.73600000000005" y="176.696"/>
      <point x="267.32800000000003" y="226.752"/>
    </contour>
  </outline>
</glyph>
<glyph name="u" format="2">
  <advance width="1520.816"/>
  <unicode hex="0075"/>
  <anchor x="880.056" y="1036.96" name="top"/>
  <anchor x="1308.984" y="0.0" name="right"/>
  <anchor x="642.312" y="0.0" name="bottom"/>
  <anchor x="1345.032" y="1036.96" name="horn"/>
  <outline>
    <contour>
      <point x="880.6719999999999" y="141.192" type="line" smooth="yes"/>
      <point x="838.472" y="21.128"/>
      <point x="882.264" y="-26.48"/>
      <point x="987.48" y="-26.48" type="curve" smooth="yes"/>
      <point x="1098.472" y="-26.48"/>
      <point x="1284.776" y="31.2"/>
      <point x="1510.328" y="218.99200000000002" type="curve"/>
      <point x="1454.368" y="307.84" type="line"/>
      <point x="1296.536" y="210.136"/>
      <point x="1181.568" y="182.488"/>
      <point x="1037.376" y="191.54399999999998" type="curve"/>
      <point x="1129.328" y="68.872" type="line"/>
      <point x="1445.16" y="1036.96" type="line"/>
      <point x="1080.44" y="1036.96" type="line"/>
      <point x="981.9599999999999" y="767.864" type="line" smooth="yes"/>
      <point x="827.7760000000001" y="329.728"/>
      <point x="707.944" y="231.088"/>
      <point x="605.24" y="231.088" type="curve" smooth="yes"/>
      <point x="562.736" y="231.088"/>
      <point x="540.176" y="247.66400000000002"/>
      <point x="540.176" y="284.648" type="curve" smooth="yes"/>
      <point x="540.176" y="313.296"/>
      <point x="550.88" y="357.184"/>
      <point x="586.0799999999999" y="450.84000000000003" type="curve" smooth="yes"/>
      <point x="728.432" y="819.68" type="line" smooth="yes"/>
      <point x="789.744" y="981.2080000000001"/>
      <point x="756.096" y="1063.44"/>
      <point x="602.648" y="1063.44" type="curve" smooth="yes"/>
      <point x="444.2" y="1063.44"/>
      <point x="249.95200000000003" y="991.504"/>
      <point x="39.519999999999996" y="787.08" type="curve"/>
      <point x="102.48" y="704.6" type="line"/>
      <point x="228.85600000000002" y="802.4159999999999"/>
      <point x="330.88" y="844.7679999999999"/>
      <point x="479.552" y="845.896" type="curve"/>
      <point x="411.968" y="948.72" type="line"/>
      <point x="234.77599999999998" y="475.728" type="line" smooth="yes"/>
      <point x="178.368" y="324.784"/>
      <point x="161.536" y="247.17600000000002"/>
      <point x="161.536" y="187.75199999999998" type="curve" smooth="yes"/>
      <point x="161.536" y="65.664"/>
      <point x="239.55200000000002" y="-26.48"/>
      <point x="401.328" y="-26.48" type="curve" smooth="yes"/>
      <point x="610.984" y="-26.48"/>
      <point x="721.824" y="46.424"/>
      <point x="958.288" y="467.99999999999994" type="curve"/>
      <point x="994.4719999999999" y="468.0" type="line"/>
    </contour>
  </outline>
</glyph>
<glyph name="braceleft" format="2">
  <advance width="801.912"/>
  <unicode hex="007B"/>
  <outline>
    <contour>
      <point x="67.616" y="540.432" type="line"/>
      <point x="137.96800000000002" y="538.136" type="line" smooth="yes"/>
      <point x="210.32" y="535.8399999999999"/>
      <point x="239.784" y="514.024"/>
      <point x="239.784" y="463.856" type="curve" smooth="yes"/>
      <point x="239.784" y="344.928"/>
      <point x="102.224" y="157.45600000000002"/>
      <point x="102.224" y="6.4559999999999995" type="curve" smooth="yes"/>
      <point x="102.224" y="-112.50399999999999"/>
      <point x="205.49599999999998" y="-220.05599999999998"/>
      <point x="369.696" y="-236.0" type="curve" smooth="yes"/>
      <point x="480.96799999999996" y="-246.944" type="line"/>
      <point x="548.184" y="-72.088" type="line"/>
      <point x="466.76" y="-60.144" type="line" smooth="yes"/>
      <point x="409.368" y="-52.792"/>
      <point x="383.84799999999996" y="-27.327999999999996"/>
      <point x="383.84799999999996" y="25.6" type="curve" smooth="yes"/>
      <point x="383.84799999999996" y="136.584"/>
      <point x="493.28000000000003" y="356.22400000000005"/>
      <point x="493.28000000000003" y="466.04" type="curve" smooth="yes"/>
      <point x="493.28000000000003" y="553.28"/>
      <point x="455.464" y="616.7040000000001"/>
      <point x="291.824" y="654.904" type="curve"/>
      <point x="271.69599999999997" y="588.28" type="line"/>
      <point x="496.76" y="615.0"/>
      <point x="600.184" y="720.848"/>
      <point x="640.536" y="851.6080000000001" type="curve" smooth="yes"/>
      <point x="672.352" y="955.76"/>
      <point x="677.592" y="1066.1360000000002"/>
      <point x="708.6479999999999" y="1164.952" type="curve" smooth="yes"/>
      <point x="735.408" y="1251.936"/>
      <point x="780.0400000000001" y="1292.384"/>
      <point x="881.712" y="1305.44" type="curve" smooth="yes"/>
      <point x="970.784" y="1317.384" type="line"/>
      <point x="1005.928" y="1491.888" type="line"/>
      <point x="823.664" y="1478.6480000000001" type="line" smooth="yes"/>
      <point x="596.704" y="1461.944"/>
      <point x="458.32000000000005" y="1341.52"/>
      <point x="417.024" y="1205.6879999999999" type="curve" smooth="yes"/>
      <point x="375.08" y="1067.5600000000002"/>
      <point x="391.024" y="942.224"/>
      <point x="358.912" y="835.5360000000001" type="curve" smooth="yes"/>
      <point x="330.74399999999997" y="743.976"/>
      <point x="285.168" y="710.456"/>
      <point x="189.112" y="706.808" type="curve" smooth="yes"/>
      <point x="117.816" y="704.864" type="line"/>
    </contour>
  </outline>
</glyph>
<glyph name="bar" format="2">
  <advance width="641.2080000000001"/>
  <unicode hex="007C"/>
  <outline>
    <contour>
      <point x="-97.16" y="-465.0" type="line"/>
      <point x="143.704" y="-465.0" type="line"/>
      <point x="749.072" y="1535.0" type="line"/>
      <point x="507.856" y="1535.0" type="line"/>
    </contour>
  </outline>
</glyph>
<glyph name="exclamdown" format="2">
  <advance width="684.52"/>
  <unicode hex="00A1"/>
  <outline>
    <contour>
      <point x="-126.432" y="-309.86400000000003" type="line" smooth="yes"/>
      <point x="-147.44799999999998" y="-369.37600000000003"/>
      <point x="-130.04" y="-402.224"/>
      <point x="63.34400000000001" y="-402.224" type="curve" smooth="yes"/>
      <point x="254.376" y="-402.224"/>
      <point x="291.744" y="-369.376"/>
      <point x="307.224" y="-309.864" type="curve" smooth="yes"/>
      <point x="328.872" y="-228.79200000000003" type="line" smooth="yes"/>
      <point x="353.128" y="-133.17599999999996"/>
      <point x="399.048" y="267.73599999999993"/>
      <point x="451.44800000000004" y="515.6080000000001" type="curve"/>
      <point x="234.472" y="515.6080000000001" type="line"/>
      <point x="134.91199999999998" y="267.73599999999993"/>
      <point x="-64.21600000000001" y="-133.17599999999996"/>
      <point x="-98.248" y="-228.79200000000003" type="curve" smooth="yes"/>
    </contour>
    <contour>
      <point x="391.48" y="673.872" type="curve" smooth="yes"/>
      <point x="585.704" y="673.872"/>
      <point x="665.904" y="786.032"/>
      <point x="665.904" y="917.376" type="curve" smooth="yes"/>
      <point x="665.904" y="1005.352"/>
      <point x="611.3520000000001" y="1055.904"/>
      <point x="504.36" y="1055.904" type="curve" smooth="yes"/>
      <point x="310.13599999999997" y="1055.904"/>
      <point x="229.936" y="943.744"/>
      <point x="229.936" y="812.7520000000001" type="curve" smooth="yes"/>
      <point x="229.936" y="724.424"/>
      <point x="284.488" y="673.872"/>
    </contour>
  </outline>
</glyph>
<glyph name="brokenbar" format="2">
  <advance width="641.2080000000001"/>
  <unicode hex="00A6"/>
  <outline>
    <contour>
      <point x="507.408" y="737.672" type="line"/>
      <point x="749.072" y="1535.0" type="line"/>
      <point x="507.856" y="1535.0" type="line"/>
      <point x="266.192" y="737.672" type="line"/>
    </contour>
    <contour>
      <point x="-97.16000000000001" y="-465.0" type="line"/>
      <point x="143.704" y="-465.0" type="line"/>
      <point x="385.72" y="332.328" type="line"/>
      <point x="144.50400000000002" y="332.328" type="line"/>
    </contour>
  </outline>
</glyph>
<glyph name="registered" format="2">
  <advance width="1290.328"/>
  <unicode hex="00AE"/>
  <outline>
    <contour>
      <point x="1012.0400000000001" y="820.0640000000001" type="line"/>
      <point x="976.392" y="820.0640000000001"/>
      <point x="971.096" y="823.6560000000001"/>
      <point x="974.576" y="861.6560000000001" type="curve" smooth="yes"/>
      <point x="978.352" y="903.1759999999999" type="line" smooth="yes"/>
      <point x="984.072" y="954.656"/>
      <point x="965.2959999999999" y="976.36"/>
      <point x="898.392" y="980.36" type="curve"/>
      <point x="897.336" y="979.0079999999999" type="line"/>
      <point x="1005.224" y="984.416"/>
      <point x="1062.832" y="1038.304"/>
      <point x="1062.832" y="1118.0800000000002" type="curve" smooth="yes"/>
      <point x="1062.832" y="1183.856"/>
      <point x="1017.408" y="1214.152"/>
      <point x="923.592" y="1214.152" type="curve" smooth="yes"/>
      <point x="732.784" y="1214.152" type="line"/>
      <point x="707.712" y="1125.3600000000001" type="line"/>
      <point x="862.984" y="1125.3600000000001" type="line" smooth="yes"/>
      <point x="894.784" y="1125.3600000000001"/>
      <point x="905.8960000000001" y="1115.656"/>
      <point x="905.8960000000001" y="1092.248" type="curve" smooth="yes"/>
      <point x="905.8960000000001" y="1048.0240000000001"/>
      <point x="883.376" y="1014.136"/>
      <point x="829.152" y="1014.136" type="curve" smooth="yes"/>
      <point x="673.304" y="1014.136" type="line"/>
      <point x="655.1759999999999" y="947.472" type="line"/>
      <point x="773.7520000000001" y="947.472" type="line" smooth="yes"/>
      <point x="819.992" y="947.472"/>
      <point x="824.288" y="940.8240000000001"/>
      <point x="821.4000000000001" y="898.232" type="curve" smooth="yes"/>
      <point x="813.976" y="826.288" type="line" smooth="yes"/>
      <point x="806.6631578947369" y="761.7515789473684"/>
      <point x="840.92" y="749.048"/>
      <point x="994.4480000000001" y="762.9920000000001" type="curve"/>
    </contour>
    <contour>
      <point x="818.04" y="1214.152" type="line"/>
      <point x="606.4559999999999" y="1214.152" type="line"/>
      <point x="593.16" y="1171.616" type="line"/>
      <point x="644.864" y="1158.376" type="line"/>
      <point x="541.976" y="819.4159999999999" type="line"/>
      <point x="480.67999999999995" y="804.528" type="line"/>
      <point x="468.384" y="762.992" type="line"/>
      <point x="721.5440000000001" y="762.992" type="line"/>
      <point x="733.8399999999999" y="804.528" type="line"/>
      <point x="697.56" y="819.4159999999999" type="line"/>
    </contour>
    <contour>
      <point x="736.216" y="604.384" type="curve" smooth="yes"/>
      <point x="498.99199999999996" y="604.384"/>
      <point x="377.96" y="703.272"/>
      <point x="377.96" y="875.64" type="curve" smooth="yes"/>
      <point x="377.96" y="1120.9279999999999"/>
      <point x="521.4879999999999" y="1340.928"/>
      <point x="828.264" y="1340.928" type="curve" smooth="yes"/>
      <point x="1065.488" y="1340.928"/>
      <point x="1186.52" y="1241.392"/>
      <point x="1186.52" y="1069.672" type="curve" smooth="yes"/>
      <point x="1186.52" y="823.736"/>
      <point x="1042.992" y="604.384"/>
    </contour>
    <contour>
      <point x="837.376" y="1440.48" type="curve" smooth="yes"/>
      <point x="453.256" y="1440.48"/>
      <point x="256.744" y="1169.856"/>
      <point x="256.744" y="860.976" type="curve" smooth="yes"/>
      <point x="256.744" y="630.072"/>
      <point x="431.144" y="504.832"/>
      <point x="727.1039999999999" y="504.832" type="curve" smooth="yes"/>
      <point x="1110.576" y="504.832"/>
      <point x="1307.736" y="775.456"/>
      <point x="1307.736" y="1083.984" type="curve" smooth="yes"/>
      <point x="1307.736" y="1314.888"/>
      <point x="1133.336" y="1440.48"/>
    </contour>
  </outline>
</glyph>
<glyph name="uni00B2" format="2">
  <advance width="834.176"/>
  <unicode hex="00B2"/>
  <outline>
    <contour>
      <point x="613.792" y="752.368" type="line"/>
      <point x="840.9440000000001" y="874.1519999999999" type="line"/>
      <point x="388.096" y="874.1519999999999" type="line"/>
      <point x="368.06399999999996" y="822.4480000000001" type="line"/>
      <point x="579.408" y="926.072" type="line" smooth="yes"/>
      <point x="854.416" y="1052.52"/>
      <point x="904.08" y="1134.6879999999999"/>
      <point x="904.08" y="1252.352" type="curve" smooth="yes"/>
      <point x="904.08" y="1374.8319999999999"/>
      <point x="802.656" y="1435.888"/>
      <point x="635.976" y="1435.888" type="curve" smooth="yes"/>
      <point x="446.072" y="1435.888"/>
      <point x="344.12800000000004" y="1363.24"/>
      <point x="249.968" y="1171.352" type="curve"/>
      <point x="341.44800000000004" y="1116.912" type="line"/>
      <point x="395.872" y="1210.472"/>
      <point x="443.98400000000004" y="1245.624"/>
      <point x="522.1360000000001" y="1245.624" type="curve" smooth="yes"/>
      <point x="591.36" y="1245.624"/>
      <point x="630.8240000000001" y="1218.5839999999998"/>
      <point x="630.8240000000001" y="1167.6" type="curve" smooth="yes"/>
      <point x="630.8240000000001" y="1105.784"/>
      <point x="602.064" y="1062.56"/>
      <point x="412.216" y="939.504" type="curve" smooth="yes"/>
      <point x="203.984" y="798.4" type="line"/>
      <point x="161.912" y="662.0" type="line"/>
      <point x="658.976" y="662.0" type="line"/>
      <point x="689.4159999999999" y="627.944" type="line"/>
      <point x="750.304" y="627.944" type="line"/>
      <point x="910.6880000000001" y="953.064" type="line"/>
      <point x="821.688" y="953.064" type="line"/>
    </contour>
  </outline>
</glyph>
<glyph name="uni00B9" format="2">
  <advance width="693.496"/>
  <unicode hex="00B9"/>
  <outline>
    <contour>
      <point x="325.30400000000003" y="772.128" type="line"/>
      <point x="199.92800000000003" y="738.5360000000001" type="line"/>
      <point x="176.984" y="662.0" type="line"/>
      <point x="669.96" y="662.0" type="line"/>
      <point x="692.904" y="738.5360000000001" type="line"/>
      <point x="594.6160000000001" y="772.128" type="line"/>
      <point x="791.32" y="1414.0" type="line"/>
      <point x="599.096" y="1414.0" type="line"/>
      <point x="253.672" y="1265.6879999999999" type="line"/>
      <point x="281.50399999999996" y="1165.264" type="line"/>
      <point x="545.36" y="1237.432" type="line"/>
      <point x="502.656" y="1350.592" type="line"/>
    </contour>
  </outline>
</glyph>
<glyph name="ccedilla" format="2">
  <advance width="1149.12"/>
  <unicode hex="00E7"/>
  <outline>
    <contour>
      <point x="253.088" y="-465.0" type="curve"/>
      <point x="507.056" y="-465.0"/>
      <point x="599.0" y="-369.40799999999996"/>
      <point x="599.0" y="-236.56000000000003" type="curve" smooth="yes"/>
      <point x="599.0" y="-161.784"/>
      <point x="546.8159999999999" y="-104.952"/>
      <point x="377.13599999999997" y="-79.78399999999999" type="curve"/>
      <point x="355.344" y="-182.256" type="line"/>
      <point x="604.312" y="38.44" type="line"/>
      <point x="470.136" y="38.44" type="line"/>
      <point x="225.072" y="-183.648" type="line"/>
      <point x="213.888" y="-219.848" type="line"/>
      <point x="367.144" y="-235.424"/>
      <point x="404.55199999999996" y="-257.296"/>
      <point x="404.55199999999996" y="-293.464" type="curve" smooth="yes"/>
      <point x="404.55199999999996" y="-341.8"/>
      <point x="370.568" y="-371.13599999999997"/>
      <point x="294.456" y="-371.13599999999997" type="curve" smooth="yes"/>
      <point x="226.45600000000002" y="-371.13599999999997"/>
      <point x="180.55200000000002" y="-323.61600000000004"/>
      <point x="159.72" y="-323.61600000000004" type="curve" smooth="yes"/>
      <point x="127.128" y="-323.61600000000004"/>
      <point x="102.24000000000001" y="-353.504"/>
      <point x="102.24000000000001" y="-391.928" type="curve" smooth="yes"/>
      <point x="102.24000000000001" y="-442.296"/>
      <point x="140.72" y="-465.0"/>
    </contour>
    <contour>
      <point x="744.576" y="917.04" type="curve" smooth="yes"/>
      <point x="790.0720000000001" y="917.04"/>
      <point x="832.256" y="870.192"/>
      <point x="874.0160000000001" y="808.192" type="curve" smooth="yes"/>
      <point x="915.776" y="746.192"/>
      <point x="947.832" y="691.92"/>
      <point x="970.8879999999999" y="691.92" type="curve" smooth="yes"/>
      <point x="1062.936" y="691.92"/>
      <point x="1147.08" y="760.288"/>
      <point x="1147.08" y="859.096" type="curve" smooth="yes"/>
      <point x="1147.08" y="974.24"/>
      <point x="1042.024" y="1063.44"/>
      <point x="793.4639999999999" y="1063.44" type="curve" smooth="yes"/>
      <point x="349.352" y="1063.44"/>
      <point x="72.928" y="755.5120000000001"/>
      <point x="72.928" y="378.192" type="curve" smooth="yes"/>
      <point x="72.928" y="99.77600000000001"/>
      <point x="211.12800000000001" y="-26.48"/>
      <point x="507.04" y="-26.48" type="curve" smooth="yes"/>
      <point x="769.384" y="-26.48"/>
      <point x="941.896" y="98.33600000000001"/>
      <point x="1056.024" y="401.856" type="curve"/>
      <point x="951.08" y="401.856" type="line"/>
      <point x="865.264" y="264.35200000000003"/>
      <point x="769.168" y="207.704"/>
      <point x="635.2800000000001" y="207.704" type="curve" smooth="yes"/>
      <point x="484.856" y="207.704"/>
      <point x="428.056" y="264.704"/>
      <point x="428.056" y="442.928" type="curve" smooth="yes"/>
      <point x="428.056" y="720.5120000000001"/>
      <point x="552.048" y="917.04"/>
    </contour>
  </outline>
</glyph>
<glyph name="divide" format="2">
  <advance width="1200.0"/>
  <unicode hex="00F7"/>
  <outline>
    <contour>
      <point x="203.24" y="628.192" type="line"/>
      <point x="136.72799999999998" y="410.88" type="line"/>
      <point x="997.7040000000001" y="410.88" type="line"/>
      <point x="1064.2160000000001" y="628.192" type="line"/>
    </contour>
    <contour>
      <point x="747.6239999999999" y="1047.6000000000001" type="curve" smooth="yes"/>
      <point x="625.688" y="1047.6000000000001"/>
      <point x="552.248" y="959.6080000000001"/>
      <point x="552.248" y="860.168" type="curve" smooth="yes"/>
      <point x="552.248" y="786.28"/>
      <point x="598.4879999999999" y="737.9119999999999"/>
      <point x="681.8" y="737.9119999999999" type="curve" smooth="yes"/>
      <point x="803.7360000000001" y="737.9119999999999"/>
      <point x="876.824" y="825.904"/>
      <point x="876.824" y="925.344" type="curve" smooth="yes"/>
      <point x="876.824" y="999.5840000000001"/>
      <point x="830.5840000000001" y="1047.6000000000001"/>
    </contour>
    <contour>
      <point x="519.144" y="301.16" type="curve" smooth="yes"/>
      <point x="397.208" y="301.16"/>
      <point x="323.76800000000003" y="213.168"/>
      <point x="323.76800000000003" y="113.728" type="curve" smooth="yes"/>
      <point x="323.76800000000003" y="39.839999999999996"/>
      <point x="370.00800000000004" y="-8.528000000000002"/>
      <point x="453.32" y="-8.528000000000002" type="curve" smooth="yes"/>
      <point x="575.2560000000001" y="-8.528000000000002"/>
      <point x="648.344" y="79.464"/>
      <point x="648.344" y="178.904" type="curve" smooth="yes"/>
      <point x="648.344" y="253.144"/>
      <point x="602.104" y="301.16"/>
    </contour>
  </outline>
</glyph>
<glyph name="aogonek" format="2">
  <advance width="1473.872"/>
  <unicode hex="0105"/>
  <outline>
    <contour>
      <point x="1448.608" y="214.45600000000002" type="curve"/>
      <point x="1395.24" y="298.768" type="line"/>
      <point x="1249.072" y="203.008"/>
      <point x="1136.696" y="182.488"/>
      <point x="987.968" y="190.248" type="curve"/>
      <point x="1061.7759999999998" y="76.0" type="line"/>
      <point x="1403.6080000000002" y="1036.96" type="line"/>
      <point x="1124.088" y="1036.96" type="line"/>
      <point x="985.5920000000001" y="845.5920000000001" type="line"/>
      <point x="929.32" y="713.344" type="line" smooth="yes"/>
      <point x="833.408" y="479.512"/>
      <point x="626.5360000000001" y="195.112"/>
      <point x="499.64" y="195.112" type="curve" smooth="yes"/>
      <point x="434.208" y="195.112"/>
      <point x="396.59200000000004" y="226.264"/>
      <point x="396.59200000000004" y="291.512" type="curve" smooth="yes"/>
      <point x="396.59200000000004" y="494.336"/>
      <point x="631.6479999999999" y="869.624"/>
      <point x="827.1519999999999" y="869.624" type="curve" smooth="yes"/>
      <point x="894.176" y="869.624"/>
      <point x="947.904" y="841.936"/>
      <point x="992.592" y="737.304" type="curve"/>
      <point x="1013.088" y="792.176" type="line"/>
      <point x="969.776" y="973.48"/>
      <point x="882.24" y="1063.44"/>
      <point x="733.2239999999999" y="1063.44" type="curve" smooth="yes"/>
      <point x="382.992" y="1063.44"/>
      <point x="33.928" y="615.448"/>
      <point x="33.928" y="254.21599999999998" type="curve" smooth="yes"/>
      <point x="33.928" y="64.408"/>
      <point x="173.736" y="-26.48"/>
      <point x="326.55199999999996" y="-26.48" type="curve" smooth="yes"/>
      <point x="493.88" y="-26.48"/>
      <point x="625.6239999999999" y="43.8"/>
      <point x="882.928" y="458.7679999999999" type="curve"/>
      <point x="913.76" y="458.7679999999999" type="line"/>
      <point x="784.976" y="136.712" type="line" smooth="yes"/>
      <point x="735.536" y="15.296000000000001"/>
      <point x="776.1999999999999" y="-26.48"/>
      <point x="912.152" y="-26.48" type="curve" smooth="yes"/>
      <point x="988.0160000000001" y="-26.48"/>
      <point x="1077.568" y="-11.184000000000001"/>
      <point x="1181.16" y="36.983999999999995" type="curve"/>
      <point x="1166.328" y="57.75999999999999" type="line"/>
      <point x="1064.2800000000002" y="-24.696" type="line" smooth="yes"/>
      <point x="879.416" y="-168.88"/>
      <point x="832.6239999999999" y="-232.768"/>
      <point x="832.6239999999999" y="-321.56" type="curve" smooth="yes"/>
      <point x="832.6239999999999" y="-399.632"/>
      <point x="877.808" y="-465.0"/>
      <point x="990.192" y="-465.0" type="curve" smooth="yes"/>
      <point x="1056.192" y="-465.0"/>
      <point x="1121.2640000000001" y="-447.76"/>
      <point x="1220.4640000000002" y="-390.87199999999996" type="curve"/>
      <point x="1220.4640000000002" y="-297.064" type="line"/>
      <point x="1167.1119999999999" y="-319.232"/>
      <point x="1137.704" y="-325.88"/>
      <point x="1099.352" y="-325.88" type="curve" smooth="yes"/>
      <point x="1043.76" y="-325.88"/>
      <point x="1018.9999999999999" y="-306.35999999999996"/>
      <point x="1018.9999999999999" y="-262.06399999999996" type="curve" smooth="yes"/>
      <point x="1018.9999999999999" y="-217.71200000000002"/>
      <point x="1031.8880000000001" y="-173.064"/>
      <point x="1144.5359999999998" y="-70.952" type="curve" smooth="yes"/>
      <point x="1254.952" y="30.52" type="line" smooth="yes"/>
      <point x="1315.968" y="86.296"/>
      <point x="1384.056" y="151.144"/>
    </contour>
  </outline>
</glyph>
<glyph name="Eogonek" format="2">
  <advance width="1578.432"/>
  <unicode hex="0118"/>
  <outline>
    <contour>
      <point x="493.6" y="1256.0400000000002" type="line"/>
      <point x="154.784" y="160.552" type="line"/>
      <point x="-21.664" y="105.18400000000001" type="line"/>
      <point x="-53.96" y="0.0" type="line"/>
      <point x="510.888" y="0.0" type="line"/>
      <point x="946.128" y="1414.0" type="line"/>
      <point x="361.744" y="1414.0" type="line"/>
      <point x="330.096" y="1308.816" type="line"/>
    </contour>
    <contour>
      <point x="942.592" y="480.0" type="line"/>
      <point x="1097.696" y="480.0" type="line"/>
      <point x="1175.696" y="735.0" type="line"/>
      <point x="1253.696" y="990.0" type="line"/>
      <point x="1098.592" y="990.0" type="line"/>
      <point x="1032.776" y="828.7919999999999" type="line"/>
      <point x="568.6080000000001" y="828.7919999999999" type="line"/>
      <point x="511.592" y="645.2080000000001" type="line"/>
      <point x="977.408" y="645.2080000000001" type="line"/>
    </contour>
    <contour>
      <point x="1581.376" y="1008.9519999999999" type="line"/>
      <point x="1708.6" y="1502.144" type="line"/>
      <point x="1584.16" y="1502.144" type="line"/>
      <point x="1460.1280000000002" y="1414.0" type="line"/>
      <point x="746.7760000000001" y="1414.0" type="line"/>
      <point x="687.1120000000001" y="1210.9759999999999" type="line"/>
      <point x="1465.072" y="1210.9759999999999" type="line"/>
      <point x="1415.888" y="1333.5759999999998" type="line"/>
      <point x="1408.848" y="1008.9519999999999" type="line"/>
    </contour>
    <contour>
      <point x="1062.088" y="-92.088" type="line"/>
      <point x="1206.416" y="-92.088" type="line"/>
      <point x="1511.888" y="468.00800000000004" type="line"/>
      <point x="1338.008" y="468.00800000000004" type="line"/>
      <point x="961.264" y="84.96000000000001" type="line"/>
      <point x="1163.448" y="203.024" type="line"/>
      <point x="375.736" y="203.024" type="line"/>
      <point x="314.776" y="0.0" type="line"/>
      <point x="1026.68" y="0.0" type="line"/>
    </contour>
    <contour>
      <point x="880.112" y="-262.064" type="curve" smooth="yes"/>
      <point x="880.112" y="-218.768"/>
      <point x="893.24" y="-187.192"/>
      <point x="991.216" y="-82.432" type="curve" smooth="yes"/>
      <point x="1142.4080000000001" y="75.88" type="line"/>
      <point x="1049.968" y="75.88" type="line"/>
      <point x="901.664" y="-37.232" type="line" smooth="yes"/>
      <point x="723.344" y="-172.992"/>
      <point x="693.736" y="-231.47199999999998"/>
      <point x="693.736" y="-321.56" type="curve" smooth="yes"/>
      <point x="693.736" y="-399.632"/>
      <point x="738.92" y="-465.0"/>
      <point x="851.3040000000001" y="-465.0" type="curve" smooth="yes"/>
      <point x="917.304" y="-465.0"/>
      <point x="982.376" y="-447.76"/>
      <point x="1081.576" y="-390.87199999999996" type="curve"/>
      <point x="1081.576" y="-297.064" type="line"/>
      <point x="1028.224" y="-319.232"/>
      <point x="998.816" y="-325.88"/>
      <point x="960.464" y="-325.88" type="curve" smooth="yes"/>
      <point x="904.8720000000001" y="-325.88"/>
      <point x="880.112" y="-306.36"/>
    </contour>
  </outline>
</glyph>
<glyph name="eogonek" format="2">
  <advance width="1187.5439999999999"/>
  <unicode hex="0119"/>
  <outline>
    <contour>
      <point x="960.264" y="200.328" type="line" smooth="yes"/>
      <point x="999.208" y="250.216"/>
      <point x="1032.504" y="306.45599999999996"/>
      <point x="1066.096" y="379.82399999999996" type="curve"/>
      <point x="959.208" y="379.82399999999996" type="line"/>
      <point x="869.096" y="254.74400000000003"/>
      <point x="762.1120000000001" y="207.704"/>
      <point x="632.76" y="207.704" type="curve" smooth="yes"/>
      <point x="475.208" y="207.704"/>
      <point x="425.168" y="264.704"/>
      <point x="425.168" y="442.928" type="curve" smooth="yes"/>
      <point x="425.168" y="762.136"/>
      <point x="587.064" y="914.632"/>
      <point x="752.168" y="914.632" type="curve" smooth="yes"/>
      <point x="829.84" y="914.632"/>
      <point x="865.992" y="873.832"/>
      <point x="865.992" y="807.512" type="curve" smooth="yes"/>
      <point x="865.992" y="687.904"/>
      <point x="847.808" y="658.7919999999999"/>
      <point x="341.592" y="562.072" type="curve"/>
      <point x="334.592" y="457.24" type="line"/>
      <point x="572.808" y="478.592"/>
      <point x="850.136" y="517.408"/>
      <point x="1103.28" y="578.928" type="curve"/>
      <point x="1146.0559999999998" y="659.848"/>
      <point x="1163.8719999999998" y="736.552"/>
      <point x="1163.8719999999998" y="806.2" type="curve" smooth="yes"/>
      <point x="1163.8719999999998" y="948.848"/>
      <point x="1060.896" y="1063.44"/>
      <point x="797.168" y="1063.44" type="curve" smooth="yes"/>
      <point x="326.232" y="1063.44"/>
      <point x="68.744" y="733.392"/>
      <point x="68.744" y="349.68" type="curve" smooth="yes"/>
      <point x="68.744" y="109.496"/>
      <point x="207.31199999999998" y="-26.48"/>
      <point x="490.912" y="-26.48" type="curve" smooth="yes"/>
      <point x="595.1279999999999" y="-26.48"/>
      <point x="690.216" y="-7.592"/>
      <point x="776.12" y="38.831999999999994" type="curve"/>
      <point x="746.16" y="75.088" type="line"/>
      <point x="695.1679999999999" y="20.224000000000007" type="line" smooth="yes"/>
      <point x="531.784" y="-147.144"/>
      <point x="477.328" y="-230.176"/>
      <point x="477.328" y="-321.56" type="curve" smooth="yes"/>
      <point x="477.328" y="-399.632"/>
      <point x="522.5120000000001" y="-465.0"/>
      <point x="634.896" y="-465.0" type="curve" smooth="yes"/>
      <point x="700.8960000000001" y="-465.0"/>
      <point x="765.968" y="-447.76"/>
      <point x="865.168" y="-390.87199999999996" type="curve"/>
      <point x="865.168" y="-297.064" type="line"/>
      <point x="811.816" y="-319.232"/>
      <point x="782.4079999999999" y="-325.88"/>
      <point x="744.0559999999999" y="-325.88" type="curve" smooth="yes"/>
      <point x="688.464" y="-325.88"/>
      <point x="663.7040000000001" y="-306.36"/>
      <point x="663.7040000000001" y="-262.06399999999996" type="curve" smooth="yes"/>
      <point x="663.7040000000001" y="-218.768"/>
      <point x="689.96" y="-145.56799999999998"/>
      <point x="783.312" y="-25.68" type="curve" smooth="yes"/>
    </contour>
  </outline>
</glyph>
<glyph name="Hbar" format="2">
  <advance width="1878.336"/>
  <unicode hex="0126"/>
  <outline>
    <contour>
      <point x="496.63199999999995" y="620.432" type="line"/>
      <point x="1452.6319999999998" y="620.432" type="line"/>
      <point x="1505.352" y="823.456" type="line"/>
      <point x="550.352" y="823.456" type="line"/>
    </contour>
    <contour>
      <point x="248.15200000000002" y="978.1519999999999" type="line"/>
      <point x="1914.8" y="978.1519999999999" type="line"/>
      <point x="1972.9440000000002" y="1167.768" type="line"/>
      <point x="306.296" y="1167.768" type="line"/>
    </contour>
    <contour>
      <point x="496.896" y="1256.0400000000002" type="line"/>
      <point x="158.07999999999998" y="160.552" type="line"/>
      <point x="-18.368" y="105.18400000000001" type="line"/>
      <point x="-50.664" y="0.0" type="line"/>
      <point x="693.928" y="0.0" type="line"/>
      <point x="724.5759999999999" y="105.18400000000001" type="line"/>
      <point x="562.072" y="157.96" type="line"/>
      <point x="900.888" y="1253.4479999999999" type="line"/>
      <point x="1077.336" y="1308.816" type="line"/>
      <point x="1107.984" y="1414.0" type="line"/>
      <point x="365.04" y="1414.0" type="line"/>
      <point x="333.392" y="1308.816" type="line"/>
    </contour>
    <contour>
      <point x="1430.616" y="1256.0400000000002" type="line"/>
      <point x="1092.4479999999999" y="160.552" type="line"/>
      <point x="915.352" y="105.18400000000001" type="line"/>
      <point x="884.704" y="0.0" type="line"/>
      <point x="1627.648" y="0.0" type="line"/>
      <point x="1659.9440000000002" y="105.18400000000001" type="line"/>
      <point x="1495.792" y="157.96" type="line"/>
      <point x="1834.608" y="1253.4479999999999" type="line"/>
      <point x="2011.056" y="1308.816" type="line"/>
      <point x="2042.352" y="1414.0" type="line"/>
      <point x="1298.76" y="1414.0" type="line"/>
      <point x="1268.1119999999999" y="1308.816" type="line"/>
    </contour>
  </outline>
</glyph>
<glyph name="oe" format="2">
  <advance width="1948.048"/>
  <unicode hex="0153"/>
  <anchor x="1136.36" y="1036.96" name="top"/>
  <anchor x="880.68" y="0.0" name="bottom"/>
  <outline>
    <contour>
      <point x="750.768" y="1063.44" type="curve" smooth="yes"/>
      <point x="318.416" y="1063.44"/>
      <point x="72.872" y="727.9599999999999"/>
      <point x="72.872" y="375.36" type="curve" smooth="yes"/>
      <point x="72.872" y="149.624"/>
      <point x="210.35199999999998" y="-26.48"/>
      <point x="534.816" y="-26.48" type="curve" smooth="yes"/>
      <point x="773.736" y="-26.48"/>
      <point x="952.144" y="98.09599999999999"/>
      <point x="1049.944" y="261.248" type="curve"/>
      <point x="884.368" y="261.248" type="line"/>
      <point x="916.8639999999999" y="93.224"/>
      <point x="1017.384" y="-26.48"/>
      <point x="1251.416" y="-26.48" type="curve" smooth="yes"/>
      <point x="1492.792" y="-26.48"/>
      <point x="1686.824" y="76.77600000000001"/>
      <point x="1826.6" y="379.82399999999996" type="curve"/>
      <point x="1719.712" y="379.82399999999996" type="line"/>
      <point x="1629.6000000000001" y="254.74400000000003"/>
      <point x="1522.616" y="207.704"/>
      <point x="1393.264" y="207.704" type="curve" smooth="yes"/>
      <point x="1235.712" y="207.704"/>
      <point x="1185.672" y="264.704"/>
      <point x="1185.672" y="442.928" type="curve" smooth="yes"/>
      <point x="1185.672" y="762.136"/>
      <point x="1347.568" y="914.632"/>
      <point x="1512.672" y="914.632" type="curve" smooth="yes"/>
      <point x="1590.344" y="914.632"/>
      <point x="1626.4959999999999" y="873.832"/>
      <point x="1626.4959999999999" y="807.512" type="curve" smooth="yes"/>
      <point x="1626.4959999999999" y="687.904"/>
      <point x="1608.3120000000001" y="658.7919999999999"/>
      <point x="1102.096" y="562.072" type="curve"/>
      <point x="1095.096" y="457.24" type="line"/>
      <point x="1333.3120000000001" y="478.592"/>
      <point x="1610.64" y="517.408"/>
      <point x="1863.784" y="578.928" type="curve"/>
      <point x="1906.5600000000002" y="659.848"/>
      <point x="1924.376" y="736.552"/>
      <point x="1924.376" y="806.2" type="curve" smooth="yes"/>
      <point x="1924.376" y="948.848"/>
      <point x="1821.3999999999999" y="1063.44"/>
      <point x="1557.672" y="1063.44" type="curve" smooth="yes"/>
      <point x="1310.624" y="1063.44"/>
      <point x="1108.864" y="951.288"/>
      <point x="983.792" y="795.912" type="curve"/>
      <point x="1167.4399999999998" y="795.9119999999999" type="line"/>
      <point x="1117.52" y="934.2159999999999"/>
      <point x="1005.816" y="1063.44"/>
    </contour>
    <contour>
      <point x="555.072" y="186.40800000000002" type="curve" smooth="yes"/>
      <point x="466.76800000000003" y="186.40800000000002"/>
      <point x="421.984" y="233.896"/>
      <point x="421.984" y="343.104" type="curve" smooth="yes"/>
      <point x="421.984" y="564.144"/>
      <point x="535.552" y="850.552"/>
      <point x="730.512" y="850.552" type="curve" smooth="yes"/>
      <point x="818.816" y="850.552"/>
      <point x="863.6" y="803.064"/>
      <point x="863.6" y="693.856" type="curve" smooth="yes"/>
      <point x="863.6" y="472.816"/>
      <point x="750.0319999999999" y="186.40800000000002"/>
    </contour>
  </outline>
</glyph>
<glyph name="Scedilla" format="2">
  <advance width="1383.048"/>
  <unicode hex="015E"/>
  <outline>
    <contour>
      <point x="1209.0559999999998" y="1172.5120000000002" type="curve"/>
      <point x="1144.896" y="1287.016" type="line"/>
      <point x="1184.368" y="971.984" type="line"/>
      <point x="1361.432" y="971.984" type="line"/>
      <point x="1454.256" y="1502.144" type="line"/>
      <point x="1317.984" y="1502.144" type="line"/>
      <point x="1189.136" y="1367.112" type="line"/>
      <point x="1357.9759999999999" y="1352.536" type="line"/>
      <point x="1268.6399999999999" y="1410.944"/>
      <point x="1116.536" y="1440.48"/>
      <point x="955.984" y="1440.48" type="curve" smooth="yes"/>
      <point x="512.032" y="1440.48"/>
      <point x="273.008" y="1256.0"/>
      <point x="273.008" y="947.752" type="curve" smooth="yes"/>
      <point x="273.008" y="759.192"/>
      <point x="380.312" y="689.064"/>
      <point x="549.032" y="623.808" type="curve" smooth="yes"/>
      <point x="717.752" y="558.552"/>
      <point x="891.7280000000001" y="535.64"/>
      <point x="891.7280000000001" y="408.632" type="curve" smooth="yes"/>
      <point x="891.7280000000001" y="266.976"/>
      <point x="776.352" y="184.264"/>
      <point x="515.272" y="184.264" type="curve" smooth="yes"/>
      <point x="382.52" y="184.264"/>
      <point x="265.99199999999996" y="213.056"/>
      <point x="167.64800000000002" y="249.44" type="curve"/>
      <point x="393.024" y="26.392000000000003" type="line"/>
      <point x="252.64" y="481.952" type="line"/>
      <point x="86.832" y="481.952" type="line"/>
      <point x="79.504" y="27.464" type="line"/>
      <point x="177.912" y="0.29600000000000004"/>
      <point x="312.368" y="-26.48"/>
      <point x="483.94399999999996" y="-26.48" type="curve" smooth="yes"/>
      <point x="1002.8639999999999" y="-26.48"/>
      <point x="1260.7440000000001" y="183.66400000000002"/>
      <point x="1260.7440000000001" y="528.616" type="curve" smooth="yes"/>
      <point x="1260.7440000000001" y="749.304"/>
      <point x="1089.096" y="825.136"/>
      <point x="922.1519999999999" y="878.544" type="curve" smooth="yes"/>
      <point x="755.2080000000001" y="931.952"/>
      <point x="628.952" y="958.472"/>
      <point x="628.952" y="1067.072" type="curve" smooth="yes"/>
      <point x="628.952" y="1170.488"/>
      <point x="697.328" y="1233.44"/>
      <point x="938.8879999999999" y="1233.44" type="curve" smooth="yes"/>
      <point x="1037.9119999999998" y="1233.44"/>
      <point x="1152.168" y="1208.9759999999999"/>
    </contour>
    <contour>
      <point x="406.93600000000004" y="-465.0" type="curve"/>
      <point x="660.904" y="-465.0"/>
      <point x="752.8480000000001" y="-369.40799999999996"/>
      <point x="752.8480000000001" y="-236.56000000000003" type="curve" smooth="yes"/>
      <point x="752.8480000000001" y="-161.784"/>
      <point x="700.664" y="-104.952"/>
      <point x="530.984" y="-79.78399999999999" type="curve"/>
      <point x="509.19199999999995" y="-182.256" type="line"/>
      <point x="758.16" y="38.44" type="line"/>
      <point x="623.9839999999999" y="38.44" type="line"/>
      <point x="378.92" y="-183.648" type="line"/>
      <point x="367.736" y="-219.848" type="line"/>
      <point x="520.992" y="-235.424"/>
      <point x="558.4" y="-257.296"/>
      <point x="558.4" y="-293.464" type="curve" smooth="yes"/>
      <point x="558.4" y="-341.8"/>
      <point x="524.416" y="-371.13599999999997"/>
      <point x="448.30400000000003" y="-371.13599999999997" type="curve" smooth="yes"/>
      <point x="380.30400000000003" y="-371.13599999999997"/>
      <point x="334.4" y="-323.61600000000004"/>
      <point x="313.568" y="-323.61600000000004" type="curve" smooth="yes"/>
      <point x="280.976" y="-323.61600000000004"/>
      <point x="256.088" y="-353.504"/>
      <point x="256.088" y="-391.928" type="curve" smooth="yes"/>
      <point x="256.088" y="-442.296"/>
      <point x="294.568" y="-465.0"/>
    </contour>
  </outline>
</glyph>
<glyph name="uni0163" format="2">
  <advance width="996.24"/>
  <unicode hex="0163"/>
  <outline>
    <contour>
      <point x="135.912" y="877.488" type="line"/>
      <point x="1060.752" y="877.488" type="line"/>
      <point x="1060.752" y="1036.96" type="line"/>
      <point x="136.968" y="1036.96" type="line"/>
    </contour>
    <contour>
      <point x="613.504" y="495.16" type="curve" smooth="yes"/>
      <point x="890.136" y="1299.744" type="line"/>
      <point x="530.216" y="1299.744" type="line"/>
      <point x="250.936" y="449.92800000000005" type="line" smooth="yes"/>
      <point x="203.44" y="307.864"/>
      <point x="183.072" y="217.632"/>
      <point x="183.072" y="151.472" type="curve" smooth="yes"/>
      <point x="183.072" y="28.184"/>
      <point x="245.21599999999998" y="-26.48"/>
      <point x="361.576" y="-26.48" type="curve" smooth="yes"/>
      <point x="480.312" y="-26.48"/>
      <point x="648.232" y="11.431999999999999"/>
      <point x="904.088" y="247.512" type="curve"/>
      <point x="838.424" y="332.76800000000003" type="line"/>
      <point x="700.736" y="231.04000000000002"/>
      <point x="643.176" y="215.704"/>
      <point x="601.712" y="215.704" type="curve" smooth="yes"/>
      <point x="570.232" y="215.704"/>
      <point x="554.344" y="223.05599999999998"/>
      <point x="554.344" y="261.24" type="curve" smooth="yes"/>
      <point x="554.344" y="290.016"/>
      <point x="564.4" y="347.384"/>
    </contour>
    <contour>
      <point x="192.47199999999998" y="-465.0" type="curve"/>
      <point x="446.44" y="-465.0"/>
      <point x="538.384" y="-369.40799999999996"/>
      <point x="538.384" y="-236.56000000000003" type="curve" smooth="yes"/>
      <point x="538.384" y="-161.784"/>
      <point x="486.2" y="-104.952"/>
      <point x="316.52000000000004" y="-79.78399999999999" type="curve"/>
      <point x="294.728" y="-182.256" type="line"/>
      <point x="543.696" y="38.44" type="line"/>
      <point x="409.52" y="38.44" type="line"/>
      <point x="164.456" y="-183.648" type="line"/>
      <point x="153.27200000000002" y="-219.848" type="line"/>
      <point x="306.528" y="-235.424"/>
      <point x="343.93600000000004" y="-257.296"/>
      <point x="343.93600000000004" y="-293.464" type="curve" smooth="yes"/>
      <point x="343.93600000000004" y="-341.8"/>
      <point x="309.95200000000006" y="-371.13599999999997"/>
      <point x="233.84" y="-371.13599999999997" type="curve" smooth="yes"/>
      <point x="165.84" y="-371.13599999999997"/>
      <point x="119.936" y="-323.61600000000004"/>
      <point x="99.10399999999998" y="-323.61600000000004" type="curve" smooth="yes"/>
      <point x="66.512" y="-323.61600000000004"/>
      <point x="41.624" y="-353.504"/>
      <point x="41.624" y="-391.928" type="curve" smooth="yes"/>
      <point x="41.624" y="-442.296"/>
      <point x="80.10400000000001" y="-465.0"/>
    </contour>
  </outline>
</glyph>
<glyph name="Tbar" format="2">
  <advance width="1633.464"/>
  <unicode hex="0166"/>
  <outline>
    <contour>
      <point x="338.4" y="576.832" type="line"/>
      <point x="1334.0720000000001" y="576.832" type="line"/>
      <point x="1392.216" y="766.448" type="line"/>
      <point x="396.54400000000004" y="766.448" type="line"/>
    </contour>
    <contour>
      <point x="1561.8400000000001" y="1207.4560000000001" type="line"/>
      <point x="1490.608" y="1277.856" type="line"/>
      <point x="1540.528" y="890.3839999999999" type="line"/>
      <point x="1707.224" y="890.3839999999999" type="line"/>
      <point x="1787.816" y="1510.48" type="line"/>
      <point x="1641.288" y="1510.48" type="line"/>
      <point x="1502.776" y="1379.984" type="line"/>
      <point x="1666.3600000000001" y="1414.0" type="line"/>
      <point x="470.55199999999996" y="1414.0" type="line"/>
      <point x="617.4319999999999" y="1379.984" type="line"/>
      <point x="561.992" y="1510.48" type="line"/>
      <point x="412.224" y="1510.48" type="line"/>
      <point x="165.89600000000002" y="890.384" type="line"/>
      <point x="346.424" y="890.384" type="line"/>
      <point x="626.856" y="1259.712" type="line"/>
      <point x="481.59200000000004" y="1207.4560000000001" type="line"/>
    </contour>
    <contour>
      <point x="862.32" y="1317.6000000000001" type="line"/>
      <point x="504.984" y="160.552" type="line"/>
      <point x="325.94399999999996" y="105.18400000000001" type="line"/>
      <point x="294.296" y="0.0" type="line"/>
      <point x="1038.24" y="0.0" type="line"/>
      <point x="1068.888" y="105.18400000000001" type="line"/>
      <point x="908.976" y="157.96" type="line"/>
      <point x="1266.96" y="1317.6000000000001" type="line"/>
    </contour>
  </outline>
</glyph>
<glyph name="uogonek" format="2">
  <advance width="1529.0"/>
  <unicode hex="0173"/>
  <outline>
    <contour>
      <point x="1510.328" y="218.99200000000002" type="curve"/>
      <point x="1454.368" y="307.84" type="line"/>
      <point x="1296.536" y="210.136"/>
      <point x="1181.568" y="182.488"/>
      <point x="1037.376" y="191.54399999999998" type="curve"/>
      <point x="1129.328" y="68.872" type="line"/>
      <point x="1445.16" y="1036.96" type="line"/>
      <point x="1080.44" y="1036.96" type="line"/>
      <point x="981.9599999999999" y="767.864" type="line" smooth="yes"/>
      <point x="827.7760000000001" y="329.728"/>
      <point x="707.944" y="231.088"/>
      <point x="605.24" y="231.088" type="curve" smooth="yes"/>
      <point x="562.736" y="231.088"/>
      <point x="540.176" y="247.66400000000002"/>
      <point x="540.176" y="284.648" type="curve" smooth="yes"/>
      <point x="540.176" y="313.296"/>
      <point x="550.88" y="357.184"/>
      <point x="586.0799999999999" y="450.84000000000003" type="curve" smooth="yes"/>
      <point x="728.432" y="819.68" type="line" smooth="yes"/>
      <point x="789.744" y="981.2080000000001"/>
      <point x="756.096" y="1063.44"/>
      <point x="602.648" y="1063.44" type="curve" smooth="yes"/>
      <point x="444.2" y="1063.44"/>
      <point x="249.95200000000003" y="991.504"/>
      <point x="39.519999999999996" y="787.08" type="curve"/>
      <point x="102.48" y="704.6" type="line"/>
      <point x="228.85600000000002" y="802.4159999999999"/>
      <point x="330.88" y="844.7679999999999"/>
      <point x="479.552" y="845.896" type="curve"/>
      <point x="411.968" y="948.72" type="line"/>
      <point x="234.77599999999998" y="475.728" type="line" smooth="yes"/>
      <point x="178.368" y="324.784"/>
      <point x="161.536" y="247.17600000000002"/>
      <point x="161.536" y="187.75199999999998" type="curve" smooth="yes"/>
      <point x="161.536" y="65.664"/>
      <point x="239.55200000000002" y="-26.48"/>
      <point x="401.328" y="-26.48" type="curve" smooth="yes"/>
      <point x="610.984" y="-26.48"/>
      <point x="721.824" y="46.424"/>
      <point x="958.288" y="467.99999999999994" type="curve"/>
      <point x="994.4719999999999" y="468.0" type="line"/>
      <point x="880.6719999999999" y="141.192" type="line" smooth="yes"/>
      <point x="838.472" y="21.128"/>
      <point x="882.264" y="-26.48"/>
      <point x="987.48" y="-26.48" type="curve" smooth="yes"/>
      <point x="1038.016" y="-26.48"/>
      <point x="1106.368" y="-14.128000000000002"/>
      <point x="1189.352" y="20.56" type="curve"/>
      <point x="1175.76" y="45.04" type="line"/>
      <point x="1069.7279999999998" y="-35.472" type="line" smooth="yes"/>
      <point x="879.752" y="-173.36"/>
      <point x="841.384" y="-234.064"/>
      <point x="841.384" y="-321.56" type="curve" smooth="yes"/>
      <point x="841.384" y="-399.632"/>
      <point x="886.568" y="-465.0"/>
      <point x="998.952" y="-465.0" type="curve" smooth="yes"/>
      <point x="1064.952" y="-465.0"/>
      <point x="1130.0240000000001" y="-447.76"/>
      <point x="1229.224" y="-390.87199999999996" type="curve"/>
      <point x="1229.224" y="-297.064" type="line"/>
      <point x="1175.872" y="-319.232"/>
      <point x="1146.4640000000002" y="-325.88"/>
      <point x="1108.112" y="-325.88" type="curve" smooth="yes"/>
      <point x="1052.52" y="-325.88"/>
      <point x="1027.76" y="-306.35999999999996"/>
      <point x="1027.76" y="-262.06399999999996" type="curve" smooth="yes"/>
      <point x="1027.76" y="-214.544"/>
      <point x="1043.04" y="-169.28"/>
      <point x="1174.768" y="-61.664" type="curve" smooth="yes"/>
      <point x="1288.4080000000001" y="30.848000000000003" type="line" smooth="yes"/>
      <point x="1362.832" y="91.328"/>
      <point x="1436.2559999999999" y="153.16"/>
    </contour>
  </outline>
</glyph>
<glyph name="Ohorn" format="2">
  <advance width="1745.7920000000001"/>
  <unicode hex="01A0"/>
  <anchor x="1098.608" y="1414.0" name="UCtop"/>
  <anchor x="734.424" y="0.0" name="bottom"/>
  <outline>
    <contour>
      <point x="535.0" y="497.56" type="curve" smooth="yes"/>
      <point x="535.0" y="857.088"/>
      <point x="711.792" y="1210.256"/>
      <point x="1044.176" y="1210.256" type="curve" smooth="yes"/>
      <point x="1234.544" y="1210.256"/>
      <point x="1325.9759999999999" y="1110.2079999999999"/>
      <point x="1325.9759999999999" y="916.4399999999999" type="curve" smooth="yes"/>
      <point x="1325.9759999999999" y="556.912"/>
      <point x="1149.184" y="203.744"/>
      <point x="816.8" y="203.744" type="curve" smooth="yes"/>
      <point x="626.4319999999999" y="203.744"/>
      <point x="535.0" y="303.79200000000003"/>
    </contour>
    <contour>
      <point x="1710.696" y="883.1519999999999" type="curve" smooth="yes"/>
      <point x="1710.696" y="1058.576"/>
      <point x="1655.696" y="1213.6480000000001"/>
      <point x="1520.6960000000001" y="1314.1680000000001" type="curve"/>
      <point x="1518.936" y="1295.632" type="line"/>
      <point x="1760.824" y="1308.496"/>
      <point x="1862.048" y="1413.8480000000002"/>
      <point x="1862.048" y="1591.48" type="curve" smooth="yes"/>
      <point x="1862.048" y="1683.2"/>
      <point x="1806.92" y="1726.088"/>
      <point x="1727.944" y="1726.088" type="curve" smooth="yes"/>
      <point x="1651.2079999999999" y="1726.088"/>
      <point x="1595.84" y="1673.128"/>
      <point x="1595.84" y="1639.592" type="curve" smooth="yes"/>
      <point x="1595.84" y="1623.0559999999998"/>
      <point x="1628.32" y="1579.872"/>
      <point x="1628.32" y="1527.816" type="curve" smooth="yes"/>
      <point x="1628.32" y="1453.5520000000001"/>
      <point x="1579.688" y="1407.312"/>
      <point x="1455.9679999999998" y="1407.312" type="curve" smooth="yes"/>
      <point x="1323.616" y="1407.312"/>
      <point x="1245.5481469157028" y="1440.48"/>
      <point x="1055.064" y="1440.48" type="curve" smooth="yes"/>
      <point x="495.248" y="1440.48"/>
      <point x="150.28" y="1040.1200000000001"/>
      <point x="150.28" y="530.848" type="curve" smooth="yes"/>
      <point x="150.28" y="178.68800000000002"/>
      <point x="364.0" y="-26.48"/>
      <point x="805.912" y="-26.48" type="curve" smooth="yes"/>
      <point x="1365.728" y="-26.48"/>
      <point x="1710.696" y="373.88"/>
    </contour>
  </outline>
</glyph>
<glyph name="ohorn" format="2">
  <advance width="1315.568"/>
  <unicode hex="01A1"/>
  <anchor x="775.992" y="1036.96" name="top"/>
  <anchor x="493.464" y="0.0" name="bottom"/>
  <outline>
    <contour>
      <point x="555.072" y="186.40800000000002" type="curve" smooth="yes"/>
      <point x="466.76800000000003" y="186.40800000000002"/>
      <point x="421.984" y="233.896"/>
      <point x="421.984" y="343.104" type="curve" smooth="yes"/>
      <point x="421.984" y="564.144"/>
      <point x="535.552" y="850.552"/>
      <point x="730.512" y="850.552" type="curve" smooth="yes"/>
      <point x="818.816" y="850.552"/>
      <point x="863.6" y="803.064"/>
      <point x="863.6" y="693.856" type="curve" smooth="yes"/>
      <point x="863.6" y="472.816"/>
      <point x="750.0319999999999" y="186.40800000000002"/>
    </contour>
    <contour>
      <point x="1212.712" y="661.6" type="curve" smooth="yes"/>
      <point x="1212.712" y="782.0400000000001"/>
      <point x="1171.584" y="891.4639999999999"/>
      <point x="1088.344" y="958.408" type="curve"/>
      <point x="1086.2320000000002" y="940.816" type="line"/>
      <point x="1306.68" y="946.624"/>
      <point x="1402.368" y="1048.088"/>
      <point x="1402.368" y="1223.24" type="curve" smooth="yes"/>
      <point x="1402.368" y="1309.68"/>
      <point x="1350.76" y="1349.048"/>
      <point x="1271.784" y="1349.048" type="curve" smooth="yes"/>
      <point x="1195.048" y="1349.048"/>
      <point x="1139.68" y="1296.088"/>
      <point x="1139.68" y="1262.552" type="curve" smooth="yes"/>
      <point x="1139.68" y="1246.0159999999998"/>
      <point x="1172.1599999999999" y="1202.832"/>
      <point x="1172.1599999999999" y="1153.592" type="curve" smooth="yes"/>
      <point x="1172.1599999999999" y="1077.8319999999999"/>
      <point x="1132.1599999999999" y="1036.256"/>
      <point x="1043.096" y="1036.256" type="curve" smooth="yes"/>
      <point x="946.2239999999999" y="1036.256"/>
      <point x="867.824" y="1063.44"/>
      <point x="750.768" y="1063.44" type="curve" smooth="yes"/>
      <point x="318.416" y="1063.44"/>
      <point x="72.872" y="727.9599999999999"/>
      <point x="72.872" y="375.36" type="curve" smooth="yes"/>
      <point x="72.872" y="149.624"/>
      <point x="210.35199999999998" y="-26.48"/>
      <point x="534.816" y="-26.48" type="curve" smooth="yes"/>
      <point x="967.168" y="-26.48"/>
      <point x="1212.712" y="309.0"/>
    </contour>
  </outline>
</glyph>
<glyph name="uni01EB" format="2">
  <advance width="1286.344"/>
  <unicode hex="01EB"/>
  <outline>
    <contour>
      <point x="750.768" y="1063.44" type="curve" smooth="yes"/>
      <point x="318.416" y="1063.44"/>
      <point x="72.872" y="727.9599999999999"/>
      <point x="72.872" y="375.36" type="curve" smooth="yes"/>
      <point x="72.872" y="149.624"/>
      <point x="210.35199999999998" y="-26.48"/>
      <point x="534.816" y="-26.48" type="curve" smooth="yes"/>
      <point x="967.168" y="-26.48"/>
      <point x="1212.712" y="309.0"/>
      <point x="1212.712" y="661.6" type="curve" smooth="yes"/>
      <point x="1212.712" y="887.336"/>
      <point x="1075.232" y="1063.44"/>
    </contour>
    <contour>
      <point x="555.072" y="186.40800000000002" type="curve" smooth="yes"/>
      <point x="466.76800000000003" y="186.40800000000002"/>
      <point x="421.984" y="233.896"/>
      <point x="421.984" y="343.104" type="curve" smooth="yes"/>
      <point x="421.984" y="564.144"/>
      <point x="535.552" y="850.552"/>
      <point x="730.512" y="850.552" type="curve" smooth="yes"/>
      <point x="818.816" y="850.552"/>
      <point x="863.6" y="803.064"/>
      <point x="863.6" y="693.856" type="curve" smooth="yes"/>
      <point x="863.6" y="472.816"/>
      <point x="750.0319999999999" y="186.40800000000002"/>
    </contour>
    <contour>
      <point x="490.232" y="-75.6" type="curve" smooth="yes"/>
      <point x="613.696" y="75.88" type="line"/>
      <point x="521.256" y="75.88" type="line"/>
      <point x="397.552" y="-32.992000000000004" type="line" smooth="yes"/>
      <point x="236.648" y="-173.82399999999998"/>
      <point x="199.688" y="-232.768"/>
      <point x="199.688" y="-321.56" type="curve" smooth="yes"/>
      <point x="199.688" y="-399.632"/>
      <point x="244.872" y="-465.0"/>
      <point x="357.256" y="-465.0" type="curve" smooth="yes"/>
      <point x="423.25600000000003" y="-465.0"/>
      <point x="488.32800000000003" y="-447.76"/>
      <point x="587.528" y="-390.87199999999996" type="curve"/>
      <point x="587.528" y="-297.064" type="line"/>
      <point x="534.1759999999999" y="-319.232"/>
      <point x="504.768" y="-325.88"/>
      <point x="466.416" y="-325.88" type="curve" smooth="yes"/>
      <point x="410.824" y="-325.88"/>
      <point x="386.064" y="-306.36"/>
      <point x="386.064" y="-262.064" type="curve" smooth="yes"/>
      <point x="386.064" y="-223.952"/>
      <point x="400.416" y="-185.84"/>
    </contour>
  </outline>
</glyph>
<glyph name="uni0259" format="2">
  <advance width="1189.6000000000001"/>
  <unicode hex="0259"/>
  <outline>
    <contour>
      <point x="438.024" y="122.328" type="curve" smooth="yes"/>
      <point x="360.35200000000003" y="122.328"/>
      <point x="324.20000000000005" y="163.128"/>
      <point x="324.20000000000005" y="229.448" type="curve" smooth="yes"/>
      <point x="324.20000000000005" y="349.056"/>
      <point x="342.384" y="378.168"/>
      <point x="848.6" y="474.888" type="curve"/>
      <point x="855.6" y="579.72" type="line"/>
      <point x="617.384" y="558.368"/>
      <point x="340.056" y="519.552"/>
      <point x="86.91199999999999" y="458.032" type="curve"/>
      <point x="44.135999999999996" y="377.11199999999997"/>
      <point x="26.319999999999997" y="300.408"/>
      <point x="26.319999999999997" y="230.76" type="curve" smooth="yes"/>
      <point x="26.319999999999997" y="88.11200000000001"/>
      <point x="129.296" y="-26.48"/>
      <point x="393.024" y="-26.48" type="curve" smooth="yes"/>
      <point x="863.96" y="-26.48"/>
      <point x="1121.448" y="303.568"/>
      <point x="1121.448" y="687.28" type="curve" smooth="yes"/>
      <point x="1121.448" y="927.4639999999999"/>
      <point x="982.88" y="1063.44"/>
      <point x="699.2800000000001" y="1063.44" type="curve" smooth="yes"/>
      <point x="457.90400000000005" y="1063.44"/>
      <point x="263.872" y="960.184"/>
      <point x="124.096" y="657.136" type="curve"/>
      <point x="230.98399999999998" y="657.136" type="line"/>
      <point x="321.096" y="782.216"/>
      <point x="428.08000000000004" y="829.256"/>
      <point x="557.432" y="829.256" type="curve" smooth="yes"/>
      <point x="714.9839999999999" y="829.256"/>
      <point x="765.024" y="772.256"/>
      <point x="765.024" y="594.032" type="curve" smooth="yes"/>
      <point x="765.024" y="274.82399999999996"/>
      <point x="603.128" y="122.328"/>
    </contour>
  </outline>
</glyph>
<glyph name="uni02B9" format="2">
  <advance width="525.032"/>
  <unicode hex="02B9"/>
  <outline>
    <contour>
      <point x="201.672" y="847.52" type="line"/>
      <point x="392.448" y="847.52" type="line"/>
      <point x="695.568" y="1350.08" type="line"/>
      <point x="714.64" y="1414.0" type="line"/>
      <point x="408.392" y="1414.0" type="line"/>
    </contour>
  </outline>
</glyph>
<glyph name="uni0312" format="2">
  <unicode hex="0312"/>
  <anchor x="159.296" y="1039.776" name="_top"/>
  <anchor x="288.704" y="1464.0" name="top"/>
  <outline>
    <contour>
      <point x="370.104" y="1250.7359999999999" type="curve" smooth="yes"/>
      <point x="370.104" y="1269.552"/>
      <point x="277.15999999999997" y="1276.496"/>
      <point x="277.15999999999997" y="1330.088" type="curve" smooth="yes"/>
      <point x="277.15999999999997" y="1364.736"/>
      <point x="303.216" y="1402.8319999999999"/>
      <point x="415.408" y="1419.2240000000002" type="curve"/>
      <point x="429.536" y="1510.2" type="line"/>
      <point x="163.22400000000002" y="1484.64"/>
      <point x="87.32" y="1362.752"/>
      <point x="87.32" y="1250.088" type="curve" smooth="yes"/>
      <point x="87.32" y="1170.368"/>
      <point x="133.448" y="1127.0"/>
      <point x="215.536" y="1127.0" type="curve" smooth="yes"/>
      <point x="314.03200000000004" y="1127.0"/>
      <point x="370.104" y="1192.0720000000001"/>
    </contour>
  </outline>
</glyph>
<glyph name="uni031B" format="2">
  <unicode hex="031B"/>
  <anchor x="159.296" y="1039.776" name="_horn"/>
  <outline>
    <contour>
      <point x="591.3919999999999" y="1226.056" type="curve" smooth="yes"/>
      <point x="591.3919999999999" y="1312.496"/>
      <point x="539.784" y="1351.864"/>
      <point x="460.80800000000005" y="1351.864" type="curve" smooth="yes"/>
      <point x="384.072" y="1351.864"/>
      <point x="328.704" y="1298.904"/>
      <point x="328.704" y="1265.3680000000002" type="curve" smooth="yes"/>
      <point x="328.704" y="1248.8319999999999"/>
      <point x="361.184" y="1205.648"/>
      <point x="361.184" y="1156.408" type="curve" smooth="yes"/>
      <point x="361.184" y="1083.352"/>
      <point x="306.94399999999996" y="1039.776"/>
      <point x="195.072" y="1039.776" type="curve" smooth="yes"/>
      <point x="68.03999999999999" y="1039.776" type="line"/>
      <point x="31.376" y="931.6719999999999" type="line"/>
      <point x="191.48" y="931.6719999999999" type="line" smooth="yes"/>
      <point x="442.35999999999996" y="931.6719999999999"/>
      <point x="591.3919999999999" y="1049.08"/>
    </contour>
  </outline>
</glyph>
<glyph name="dagger" format="2">
  <advance width="879.872"/>
  <unicode hex="2020"/>
  <outline>
    <contour>
      <point x="729.208" y="1177.616" type="line"/>
      <point x="864.888" y="1464.0" type="line"/>
      <point x="585.632" y="1464.0" type="line"/>
      <point x="545.704" y="1177.616" type="line"/>
      <point x="414.8" y="902.56" type="line"/>
      <point x="397.76" y="644.952" type="line"/>
      <point x="546.136" y="644.952" type="line"/>
      <point x="692.76" y="902.56" type="line"/>
    </contour>
    <contour>
      <point x="663.232" y="1261.4799999999998" type="line"/>
      <point x="346.112" y="1293.608" type="line"/>
      <point x="273.432" y="1054.088" type="line"/>
      <point x="609.088" y="1085.864" type="line"/>
      <point x="924.856" y="1054.088" type="line"/>
      <point x="998.1840000000001" y="1293.608" type="line"/>
    </contour>
  </outline>
</glyph>
<glyph name="minute" format="2">
  <advance width="540.776"/>
  <unicode hex="2032"/>
  <outline>
    <contour>
      <point x="219.952" y="847.52" type="line"/>
      <point x="410.728" y="847.52" type="line"/>
      <point x="713.848" y="1350.08" type="line"/>
      <point x="732.92" y="1414.0" type="line"/>
      <point x="426.672" y="1414.0" type="line"/>
    </contour>
  </outline>
</glyph>
<glyph name="peseta" format="2">
  <advance width="1462.0"/>
  <unicode hex="20A7"/>
  <outline>
    <contour>
      <point x="904.5360000000001" y="240.88" type="curve" smooth="yes"/>
      <point x="1177.592" y="1135.048" type="line"/>
      <point x="1069.6000000000001" y="1135.048" type="line"/>
      <point x="970.936" y="948.848"/>
      <point x="936.216" y="917.1840000000001"/>
      <point x="822.184" y="851.856" type="curve"/>
      <point x="790.4639999999999" y="747.1039999999999" type="line"/>
      <point x="835.6320000000001" y="747.1039999999999" type="line"/>
      <point x="676.4960000000001" y="226.47199999999998" type="line" smooth="yes"/>
      <point x="619.48" y="39.536"/>
      <point x="675.496" y="-17.536"/>
      <point x="776.512" y="-17.536" type="curve" smooth="yes"/>
      <point x="829.528" y="-17.536"/>
      <point x="881.3599999999999" y="-3.2960000000000003"/>
      <point x="944.5440000000001" y="33.888" type="curve"/>
      <point x="992.152" y="188.656" type="line"/>
      <point x="965.5759999999999" y="176.488"/>
      <point x="945.112" y="172.43200000000002"/>
      <point x="924.0000000000001" y="172.43200000000002" type="curve" smooth="yes"/>
      <point x="895.128" y="172.43200000000002"/>
      <point x="887.48" y="185.008"/>
    </contour>
    <contour>
      <point x="959.92" y="747.1039999999999" type="line"/>
      <point x="1147.216" y="747.1039999999999" type="line"/>
      <point x="1206.0639999999999" y="936.9599999999999" type="line"/>
      <point x="1012.784" y="936.9599999999999" type="line"/>
    </contour>
    <contour>
      <point x="308.28000000000003" y="1254.84" type="line"/>
      <point x="-26.575999999999997" y="159.16000000000003" type="line"/>
      <point x="-123.54400000000001" y="123.328" type="line"/>
      <point x="-161.672" y="0.0" type="line"/>
      <point x="284.112" y="0.0" type="line"/>
      <point x="322.23999999999995" y="123.328" type="line"/>
      <point x="227.44" y="159.16" type="line"/>
      <point x="611.3679999999999" y="1414.0" type="line"/>
      <point x="271.32800000000003" y="1414.0" type="line"/>
      <point x="233.2" y="1290.6719999999998" type="line"/>
    </contour>
    <contour>
      <point x="1470.856" y="971.776" type="curve" smooth="yes"/>
      <point x="1261.696" y="971.776"/>
      <point x="1163.64" y="804.856"/>
      <point x="1163.64" y="608.52" type="curve" smooth="yes"/>
      <point x="1163.64" y="441.784"/>
      <point x="1245.2160000000001" y="379.36"/>
      <point x="1245.2160000000001" y="267.392" type="curve" smooth="yes"/>
      <point x="1245.2160000000001" y="180.976"/>
      <point x="1217.584" y="146.024"/>
      <point x="1127.912" y="146.024" type="curve" smooth="yes"/>
      <point x="1098.0240000000001" y="146.024"/>
      <point x="1072.136" y="151.96800000000002"/>
      <point x="1056.192" y="162.32" type="curve"/>
      <point x="1125.616" y="45.736000000000004" type="line"/>
      <point x="1125.0800000000002" y="269.704" type="line"/>
      <point x="1051.544" y="269.704" type="line"/>
      <point x="990.6" y="6.296" type="line"/>
      <point x="1025.8239999999998" y="-9.704"/>
      <point x="1078.728" y="-19.296"/>
      <point x="1125.32" y="-19.296" type="curve" smooth="yes"/>
      <point x="1313.88" y="-19.296"/>
      <point x="1437.912" y="89.912"/>
      <point x="1440.504" y="333.864" type="curve" smooth="yes"/>
      <point x="1441.8" y="486.36800000000005"/>
      <point x="1354.872" y="591.128"/>
      <point x="1353.816" y="698.688" type="curve" smooth="yes"/>
      <point x="1353.464" y="762.672"/>
      <point x="1379.096" y="815.5840000000001"/>
      <point x="1453.248" y="815.5840000000001" type="curve" smooth="yes"/>
      <point x="1473.896" y="815.5840000000001"/>
      <point x="1496.192" y="805.9920000000001"/>
      <point x="1516.08" y="791.752" type="curve"/>
      <point x="1470.6" y="911.688" type="line"/>
      <point x="1457.968" y="707.128" type="line"/>
      <point x="1529.504" y="707.128" type="line"/>
      <point x="1591.504" y="947.296" type="line"/>
      <point x="1561.152" y="964.832"/>
      <point x="1528.336" y="971.776"/>
    </contour>
    <contour>
      <point x="425.128" y="724.296" type="curve" smooth="yes"/>
      <point x="314.408" y="724.296" type="line"/>
      <point x="194.344" y="514.2" type="line"/>
      <point x="426.016" y="514.2" type="line" smooth="yes"/>
      <point x="640.52" y="514.2"/>
      <point x="778.3119999999999" y="741.304"/>
      <point x="828.856" y="1022.3679999999999" type="curve" smooth="yes"/>
      <point x="881.3439999999999" y="1286.68"/>
      <point x="826.152" y="1414.0"/>
      <point x="646.7520000000001" y="1414.0" type="curve" smooth="yes"/>
      <point x="481.264" y="1414.0" type="line"/>
      <point x="456.672" y="1192.368" type="line"/>
      <point x="564.888" y="1192.368" type="line" smooth="yes"/>
      <point x="627.264" y="1192.368"/>
      <point x="642.3439999999999" y="1144.096"/>
      <point x="615.1279999999999" y="1017.088" type="curve" smooth="yes"/>
      <point x="587.912" y="863.0319999999999"/>
      <point x="531.056" y="724.296"/>
    </contour>
  </outline>
</glyph>
<glyph name="minus" format="2">
  <advance width="1200.0"/>
  <unicode hex="2212"/>
  <outline>
    <contour>
      <point x="203.24" y="628.192" type="line"/>
      <point x="136.72799999999998" y="410.88" type="line"/>
      <point x="997.7040000000001" y="410.88" type="line"/>
      <point x="1064.2160000000001" y="628.192" type="line"/>
    </contour>
  </outline>
</glyph>
<glyph name="notequal" format="2">
  <advance width="1200.0"/>
  <unicode hex="2260"/>
  <outline>
    <contour>
      <point x="12.503999999999998" y="5.632" type="line"/>
      <point x="263.888" y="5.632" type="line"/>
      <point x="1188.5520000000001" y="1033.088" type="line"/>
      <point x="937.816" y="1033.088" type="line"/>
    </contour>
    <contour>
      <point x="266.424" y="834.576" type="line"/>
      <point x="199.91199999999998" y="616.9119999999999" type="line"/>
      <point x="1060.888" y="616.9119999999999" type="line"/>
      <point x="1127.4" y="834.576" type="line"/>
    </contour>
    <contour>
      <point x="140.816" y="422.512" type="line"/>
      <point x="74.304" y="204.848" type="line"/>
      <point x="935.2800000000001" y="204.848" type="line"/>
      <point x="1001.792" y="422.512" type="line"/>
    </contour>
  </outline>
</glyph>
<glyph name="greaterequal" format="2">
  <advance width="1200.0"/>
  <unicode hex="2265"/>
  <outline>
    <contour>
      <point x="971.192" y="217.664" type="line"/>
      <point x="49.704" y="217.664" type="line"/>
      <point x="-17.160000000000004" y="0.0" type="line"/>
      <point x="904.328" y="0.0" type="line"/>
    </contour>
    <contour>
      <point x="942.528" y="683.496" type="line"/>
      <point x="127.704" y="470.72" type="line"/>
      <point x="52.599999999999994" y="226.28" type="line"/>
      <point x="1064.1280000000002" y="519.864" type="line"/>
      <point x="1140.472" y="770.9119999999999" type="line"/>
      <point x="309.024" y="1064.496" type="line"/>
      <point x="243.16" y="847.832" type="line"/>
      <point x="928.9920000000001" y="638.24" type="line"/>
    </contour>
  </outline>
</glyph>
<glyph name="uni27E9" format="2">
  <advance width="1200.0"/>
  <unicode hex="27E9"/>
  <outline>
    <contour>
      <point x="793.0" y="770.144" type="line"/>
      <point x="46.712" y="0.0" type="line"/>
      <point x="352.312" y="0.0" type="line"/>
      <point x="1007.44" y="672.856" type="line"/>
      <point x="1028.456" y="741.8480000000001" type="line"/>
      <point x="726.576" y="1414.0" type="line"/>
      <point x="478.712" y="1414.0" type="line"/>
      <point x="779.704" y="705.776" type="line"/>
    </contour>
  </outline>
</glyph>
<glyph name="cent.lf" format="2">
  <advance width="1230.08"/>
  <outline>
    <contour>
      <point x="225.392" y="0.0" type="line"/>
      <point x="389.344" y="0.0" type="line"/>
      <point x="1260.624" y="1414.0" type="line"/>
      <point x="1096.672" y="1414.0" type="line"/>
    </contour>
    <contour>
      <point x="835.76" y="1102.432" type="curve" smooth="yes"/>
      <point x="881.2560000000001" y="1102.432"/>
      <point x="923.4399999999999" y="1055.584"/>
      <point x="965.2" y="993.584" type="curve" smooth="yes"/>
      <point x="1006.9599999999999" y="931.584"/>
      <point x="1039.016" y="877.312"/>
      <point x="1062.0720000000001" y="877.312" type="curve" smooth="yes"/>
      <point x="1154.12" y="877.312"/>
      <point x="1238.2640000000001" y="945.68"/>
      <point x="1238.2640000000001" y="1044.488" type="curve" smooth="yes"/>
      <point x="1238.2640000000001" y="1159.632"/>
      <point x="1133.208" y="1248.8319999999999"/>
      <point x="884.6479999999999" y="1248.8319999999999" type="curve" smooth="yes"/>
      <point x="440.536" y="1248.8319999999999"/>
      <point x="164.112" y="940.904"/>
      <point x="164.112" y="563.584" type="curve" smooth="yes"/>
      <point x="164.112" y="285.168"/>
      <point x="302.312" y="158.91199999999998"/>
      <point x="598.224" y="158.91199999999998" type="curve" smooth="yes"/>
      <point x="860.568" y="158.91199999999998"/>
      <point x="1033.08" y="283.72799999999995"/>
      <point x="1147.208" y="587.248" type="curve"/>
      <point x="1042.264" y="587.248" type="line"/>
      <point x="956.448" y="449.744"/>
      <point x="860.3520000000001" y="393.096"/>
      <point x="726.464" y="393.096" type="curve" smooth="yes"/>
      <point x="576.04" y="393.096"/>
      <point x="519.24" y="450.096"/>
      <point x="519.24" y="628.32" type="curve" smooth="yes"/>
      <point x="519.24" y="905.904"/>
      <point x="643.2320000000001" y="1102.432"/>
    </contour>
  </outline>
</glyph>
<glyph name="dong.lf" format="2">
  <advance width="1634.904"/>
  <outline>
    <contour>
      <point x="1190.952" y="-237.024" type="line"/>
      <point x="-55.504" y="-237.024" type="line"/>
      <point x="-101.056" y="-384.92" type="line"/>
      <point x="1145.4" y="-384.92" type="line"/>
    </contour>
    <contour>
      <point x="1016.4240000000001" y="737.304" type="curve"/>
      <point x="1036.92" y="792.1759999999999" type="line"/>
      <point x="993.6080000000001" y="973.48"/>
      <point x="907.3679999999999" y="1063.44"/>
      <point x="758.352" y="1063.44" type="curve" smooth="yes"/>
      <point x="408.12" y="1063.44"/>
      <point x="59.056" y="615.448"/>
      <point x="59.056" y="254.216" type="curve" smooth="yes"/>
      <point x="59.056" y="64.408"/>
      <point x="198.864" y="-26.48"/>
      <point x="350.384" y="-26.48" type="curve" smooth="yes"/>
      <point x="517.712" y="-26.48"/>
      <point x="649.456" y="43.800000000000004"/>
      <point x="906.76" y="458.7679999999999" type="curve"/>
      <point x="937.5920000000001" y="458.7679999999999" type="line"/>
      <point x="810.104" y="134.12" type="line" smooth="yes"/>
      <point x="761.9599999999999" y="12.056000000000001"/>
      <point x="807.16" y="-26.48"/>
      <point x="943.112" y="-26.48" type="curve" smooth="yes"/>
      <point x="1081.968" y="-26.48"/>
      <point x="1258.552" y="24.072000000000003"/>
      <point x="1479.5680000000002" y="214.45600000000002" type="curve"/>
      <point x="1426.1999999999998" y="298.768" type="line"/>
      <point x="1280.0320000000002" y="203.008"/>
      <point x="1167.656" y="182.488"/>
      <point x="1018.928" y="190.248" type="curve"/>
      <point x="1092.736" y="76.0" type="line"/>
      <point x="1587.3600000000001" y="1490.48" type="line"/>
      <point x="1530.4560000000001" y="1490.48" type="line"/>
      <point x="1075.008" y="1446.752" type="line"/>
      <point x="1051.232" y="1349.24" type="line"/>
      <point x="1085.5520000000001" y="1328.2746666666665"/>
      <point x="1136.768" y="1300.568"/>
      <point x="1160.456" y="1284.496" type="curve"/>
      <point x="970.0799999999999" y="739.984" type="line" smooth="yes"/>
      <point x="884.648" y="485.496"/>
      <point x="652.1279999999999" y="195.112"/>
      <point x="523.472" y="195.112" type="curve" smooth="yes"/>
      <point x="458.03999999999996" y="195.112"/>
      <point x="420.42400000000004" y="226.264"/>
      <point x="420.42400000000004" y="291.512" type="curve" smooth="yes"/>
      <point x="420.42400000000004" y="494.336"/>
      <point x="655.48" y="869.624"/>
      <point x="850.984" y="869.624" type="curve" smooth="yes"/>
      <point x="918.6560000000001" y="869.624"/>
      <point x="971.088" y="843.232"/>
    </contour>
    <contour>
      <point x="832.3760000000001" y="1143.76" type="line"/>
      <point x="1654.0880000000002" y="1143.76" type="line"/>
      <point x="1692.032" y="1270.24" type="line"/>
      <point x="870.32" y="1270.24" type="line"/>
    </contour>
  </outline>
</glyph>
<glyph name="eight.lf" format="2">
  <advance width="1363.4720000000002"/>
  <outline>
    <contour>
      <point x="833.7280000000001" y="824.376" type="line"/>
      <point x="1143.712" y="784.5039999999999"/>
      <point x="1369.096" y="910.1279999999999"/>
      <point x="1369.096" y="1144.144" type="curve" smooth="yes"/>
      <point x="1369.096" y="1320.3280000000002"/>
      <point x="1248.8" y="1440.48"/>
      <point x="894.8720000000001" y="1440.48" type="curve" smooth="yes"/>
      <point x="460.79999999999995" y="1440.48"/>
      <point x="288.728" y="1247.664"/>
      <point x="288.728" y="999.04" type="curve" smooth="yes"/>
      <point x="288.728" y="739.24"/>
      <point x="471.23199999999997" y="662.4799999999999"/>
      <point x="622.12" y="601.1999999999999" type="curve" smooth="yes"/>
      <point x="773.008" y="539.92"/>
      <point x="882.592" y="495.64"/>
      <point x="882.592" y="364.11199999999997" type="curve" smooth="yes"/>
      <point x="882.592" y="243.752"/>
      <point x="787.456" y="170.856"/>
      <point x="590.416" y="170.856" type="curve" smooth="yes"/>
      <point x="420.248" y="170.856"/>
      <point x="356.464" y="225.656"/>
      <point x="356.464" y="363.144" type="curve" smooth="yes"/>
      <point x="356.464" y="504.208"/>
      <point x="443.54400000000004" y="616.4"/>
      <point x="644.408" y="662.264" type="curve"/>
      <point x="598.256" y="704.704" type="line"/>
      <point x="275.6323322841441" y="685.1378913752693"/>
      <point x="68.8" y="551.6156915167095"/>
      <point x="68.8" y="304.872" type="curve" smooth="yes"/>
      <point x="68.8" y="100.872"/>
      <point x="195.768" y="-26.48"/>
      <point x="578.9359999999999" y="-26.48" type="curve" smooth="yes"/>
      <point x="1030.3600000000001" y="-26.48"/>
      <point x="1226.688" y="153.208"/>
      <point x="1226.688" y="446.176" type="curve" smooth="yes"/>
      <point x="1226.688" y="703.32"/>
      <point x="1048.096" y="793.688"/>
      <point x="893.376" y="856.56" type="curve" smooth="yes"/>
      <point x="738.656" y="919.432"/>
      <point x="601.976" y="950.456"/>
      <point x="601.976" y="1074.424" type="curve" smooth="yes"/>
      <point x="601.976" y="1174.84"/>
      <point x="659.616" y="1243.216"/>
      <point x="860.984" y="1243.216" type="curve" smooth="yes"/>
      <point x="1028.4479999999999" y="1243.216"/>
      <point x="1084.544" y="1189.248"/>
      <point x="1084.544" y="1100.24" type="curve" smooth="yes"/>
      <point x="1084.544" y="987.2479999999999"/>
      <point x="999.24" y="885.224"/>
      <point x="790.4559999999999" y="850.8000000000001" type="curve"/>
    </contour>
  </outline>
</glyph>
<glyph name="four.lf" format="2">
  <advance width="1433.656"/>
  <outline>
    <contour>
      <point x="928.992" y="1308.264" type="line"/>
      <point x="548.848" y="163.552" type="line"/>
      <point x="317.88" y="97.888" type="line"/>
      <point x="288.88" y="0.0" type="line"/>
      <point x="1157.2240000000002" y="0.0" type="line"/>
      <point x="1185.872" y="97.888" type="line"/>
      <point x="973.0" y="164.2" type="line"/>
      <point x="1356.464" y="1414.0" type="line"/>
      <point x="881.4559999999999" y="1414.0" type="line"/>
      <point x="108.736" y="679.76" type="line"/>
      <point x="27.223999999999997" y="399.192" type="line"/>
      <point x="1294.416" y="399.192" type="line"/>
      <point x="1427.432" y="664.456" type="line"/>
      <point x="1211.0800000000002" y="635.456" type="line"/>
      <point x="175.23999999999998" y="635.456" type="line"/>
      <point x="213.08800000000002" y="546.736" type="line"/>
      <point x="999.472" y="1283.104" type="line"/>
    </contour>
  </outline>
</glyph>
<glyph name="gravecomb.case" format="2">
  <anchor x="273.704" y="1414.0" name="_UCtop"/>
  <anchor x="434.704" y="1941.0" name="UCtop"/>
  <outline>
    <contour>
      <point x="406.64000000000004" y="1544.0" type="line"/>
      <point x="307.12" y="1870.0" type="line"/>
      <point x="-0.33600000000000385" y="1870.0" type="line"/>
      <point x="-18.056000000000004" y="1808.672" type="line"/>
      <point x="249.07999999999998" y="1544.0" type="line"/>
    </contour>
  </outline>
</glyph>
<glyph name="nine.lf" format="2">
  <advance width="1341.912"/>
  <outline>
    <contour>
      <point x="119.736" y="-49.352" type="line"/>
      <point x="1149.08" y="24.711999999999996"/>
      <point x="1331.856" y="584.4159999999999"/>
      <point x="1331.856" y="989.888" type="curve" smooth="yes"/>
      <point x="1331.856" y="1267.9422182628064"/>
      <point x="1180.504" y="1440.48"/>
      <point x="835.352" y="1440.48" type="curve" smooth="yes"/>
      <point x="436.552" y="1440.48"/>
      <point x="179.952" y="1186.3637436505437"/>
      <point x="179.952" y="849.696" type="curve" smooth="yes"/>
      <point x="179.952" y="644.456"/>
      <point x="297.584" y="522.472"/>
      <point x="507.328" y="522.472" type="curve" smooth="yes"/>
      <point x="708.808" y="522.472"/>
      <point x="890.896" y="628.384"/>
      <point x="1030.8719999999998" y="916.592" type="curve"/>
      <point x="986.1919999999999" y="920.112" type="line"/>
      <point x="915.5805128814768" y="797.615445163424"/>
      <point x="826.6800000000001" y="745.936"/>
      <point x="727.7439999999999" y="745.936" type="curve" smooth="yes"/>
      <point x="615.8960000000001" y="745.936"/>
      <point x="573.944" y="805.424"/>
      <point x="573.944" y="912.432" type="curve" smooth="yes"/>
      <point x="573.944" y="1122.034264466128"/>
      <point x="672.968" y="1247.0479999999998"/>
      <point x="823.04" y="1247.0479999999998" type="curve" smooth="yes"/>
      <point x="925.368" y="1247.0479999999998"/>
      <point x="980.912" y="1184.9625263157893"/>
      <point x="980.912" y="1032.1760000000002" type="curve" smooth="yes"/>
      <point x="980.912" y="603.496"/>
      <point x="767.432" y="186.16000000000003"/>
      <point x="119.73599999999999" y="115.12" type="curve"/>
    </contour>
  </outline>
</glyph>
<glyph name="one.lf" format="2">
  <advance width="1081.3680000000002"/>
  <outline>
    <contour>
      <point x="299.25600000000003" y="163.552" type="line"/>
      <point x="39.128" y="97.888" type="line"/>
      <point x="10.128" y="0.0" type="line"/>
      <point x="878.472" y="0.0" type="line"/>
      <point x="907.12" y="97.888" type="line"/>
      <point x="694.248" y="164.2" type="line"/>
      <point x="1079.824" y="1421.04" type="line"/>
      <point x="773.528" y="1421.04" type="line"/>
      <point x="226.12" y="1188.2160000000001" type="line"/>
      <point x="268.6" y="1014.2800000000001" type="line"/>
      <point x="730.6800000000001" y="1142.52" type="line"/>
      <point x="648.832" y="1304.04" type="line"/>
    </contour>
  </outline>
</glyph>
<glyph name="six.lf" format="2">
  <advance width="1347.192"/>
  <outline>
    <contour>
      <point x="1327.232" y="1463.352" type="line"/>
      <point x="303.872" y="1389.992"/>
      <point x="122.152" y="829.5840000000001"/>
      <point x="122.152" y="424.112" type="curve" smooth="yes"/>
      <point x="122.152" y="145.12800000000001"/>
      <point x="265.408" y="-26.48"/>
      <point x="611.616" y="-26.48" type="curve" smooth="yes"/>
      <point x="1011.824" y="-26.48"/>
      <point x="1276.52" y="240.392"/>
      <point x="1276.52" y="581.552" type="curve" smooth="yes"/>
      <point x="1276.52" y="773.768"/>
      <point x="1166.9840000000002" y="898.216"/>
      <point x="958.296" y="898.216" type="curve" smooth="yes"/>
      <point x="758.224" y="898.216"/>
      <point x="565.5759999999999" y="793.36"/>
      <point x="426.65599999999995" y="505.504" type="curve"/>
      <point x="471.336" y="501.632" type="line"/>
      <point x="540.304" y="623.08"/>
      <point x="634.016" y="674.048"/>
      <point x="731.192" y="674.048" type="curve" smooth="yes"/>
      <point x="844.448" y="674.048"/>
      <point x="881.472" y="611.392"/>
      <point x="881.472" y="515.6479999999999" type="curve" smooth="yes"/>
      <point x="881.472" y="301.944"/>
      <point x="774.704" y="166.952"/>
      <point x="626.04" y="166.952" type="curve" smooth="yes"/>
      <point x="523.008" y="166.952"/>
      <point x="473.096" y="228.44"/>
      <point x="473.096" y="381.824" type="curve" smooth="yes"/>
      <point x="473.096" y="810.504"/>
      <point x="684.816" y="1228.5439999999999"/>
      <point x="1327.232" y="1298.8799999999999" type="curve"/>
    </contour>
  </outline>
</glyph>
<glyph name="sterling.lf" format="2">
  <advance width="1421.712"/>
  <outline>
    <contour>
      <point x="1082.472" y="784.6800000000001" type="line"/>
      <point x="163.576" y="784.6800000000001" type="line"/>
      <point x="117.96799999999999" y="634.672" type="line"/>
      <point x="1036.216" y="634.672" type="line"/>
    </contour>
    <contour>
      <point x="370.46400000000006" y="342.0" type="line"/>
      <point x="317.256" y="255.68800000000002" type="line"/>
      <point x="582.072" y="408.56800000000004"/>
      <point x="690.552" y="519.8960000000001"/>
      <point x="724.896" y="624.584" type="curve" smooth="yes"/>
      <point x="759.24" y="733.496"/>
      <point x="730.568" y="813.472"/>
      <point x="742.88" y="931.4399999999999" type="curve" smooth="yes"/>
      <point x="755.192" y="1053.6319999999998"/>
      <point x="818.2159999999999" y="1137.232"/>
      <point x="993.3760000000001" y="1137.232" type="curve" smooth="yes"/>
      <point x="1152.8639999999998" y="1137.232"/>
      <point x="1218.256" y="1061.168"/>
      <point x="1242.5680000000002" y="905.5440000000001" type="curve"/>
      <point x="1437.5200000000002" y="954.8879999999999" type="line"/>
      <point x="1387.4160000000002" y="1275.1119999999999"/>
      <point x="1280.0800000000002" y="1440.48"/>
      <point x="949.368" y="1440.48" type="curve" smooth="yes"/>
      <point x="521.5840000000001" y="1440.48"/>
      <point x="349.608" y="1212.872"/>
      <point x="349.608" y="946.968" type="curve" smooth="yes"/>
      <point x="349.608" y="765.632"/>
      <point x="419.536" y="685.5920000000001"/>
      <point x="419.536" y="578.496" type="curve" smooth="yes"/>
      <point x="419.536" y="452.904"/>
      <point x="354.088" y="364.528"/>
      <point x="85.608" y="169.208" type="curve"/>
      <point x="34.168" y="0.0" type="line"/>
      <point x="871.024" y="0.0" type="line"/>
      <point x="909.1120000000001" y="-75.888" type="line"/>
      <point x="1051.4959999999999" y="-75.888" type="line"/>
      <point x="1341.24" y="519.5519999999999" type="line"/>
      <point x="1193.504" y="519.5519999999999" type="line"/>
      <point x="849.2239999999999" y="201.36" type="line"/>
      <point x="1206.472" y="342.0" type="line"/>
    </contour>
  </outline>
</glyph>
<glyph name="uni0304.case" format="2">
  <anchor x="273.704" y="1414.0" name="_UCtop"/>
  <anchor x="412.704" y="1870.0" name="UCtop"/>
  <outline>
    <contour>
      <point x="18.823999999999998" y="1626.2640000000001" type="line"/>
      <point x="658.272" y="1626.2640000000001" type="line"/>
      <point x="707.232" y="1788.736" type="line"/>
      <point x="68.78399999999999" y="1788.736" type="line"/>
    </contour>
  </outline>
</glyph>
<glyph name="uni0306.case" format="2">
  <anchor x="273.704" y="1414.0" name="_UCtop"/>
  <anchor x="412.704" y="1870.0" name="UCtop"/>
  <outline>
    <contour>
      <point x="361.20000000000005" y="1735.448" type="curve" smooth="yes"/>
      <point x="247.976" y="1735.448"/>
      <point x="212.92000000000002" y="1768.432"/>
      <point x="218.2" y="1870.0" type="curve"/>
      <point x="80.896" y="1870.0" type="line"/>
      <point x="43.656" y="1648.2"/>
      <point x="109.67200000000001" y="1541.888"/>
      <point x="324.24" y="1541.888" type="curve" smooth="yes"/>
      <point x="524.8639999999999" y="1541.888"/>
      <point x="637.232" y="1621.1280000000002"/>
      <point x="744.16" y="1870.0" type="curve"/>
      <point x="586.376" y="1870.0" type="line"/>
      <point x="530.408" y="1768.7839999999999"/>
      <point x="473.776" y="1735.448"/>
    </contour>
  </outline>
</glyph>
<glyph name="uni0306_gravecomb.case" format="2">
  <anchor x="273.704" y="1414.0" name="_UCtop"/>
  <outline>
    <contour>
      <point x="412.144" y="1721.0" type="line"/>
      <point x="370.59999999999997" y="2004.0" type="line"/>
      <point x="141.50400000000002" y="2004.0" type="line"/>
      <point x="131.32" y="1966.984" type="line"/>
      <point x="303.56" y="1721.0" type="line"/>
    </contour>
    <contour>
      <point x="332.776" y="1646.528" type="curve" smooth="yes"/>
      <point x="210.72" y="1646.528"/>
      <point x="180.072" y="1675.808"/>
      <point x="182.776" y="1742.0" type="curve"/>
      <point x="49.176" y="1742.0" type="line"/>
      <point x="23.936" y="1552.48"/>
      <point x="117.96799999999999" y="1510.072"/>
      <point x="316.128" y="1510.072" type="curve" smooth="yes"/>
      <point x="505.4" y="1510.072"/>
      <point x="607.36" y="1553.128"/>
      <point x="697.88" y="1742.0" type="curve"/>
      <point x="541.8" y="1742.0" type="line"/>
      <point x="502.704" y="1672.272"/>
      <point x="445.592" y="1646.528"/>
    </contour>
  </outline>
</glyph>
<glyph name="uni0306_tildecomb.case" format="2">
  <anchor x="273.704" y="1414.0" name="_UCtop"/>
  <outline>
    <contour>
      <point x="332.776" y="1646.528" type="curve" smooth="yes"/>
      <point x="210.72" y="1646.528"/>
      <point x="180.072" y="1675.808"/>
      <point x="182.776" y="1742.0" type="curve"/>
      <point x="49.176" y="1742.0" type="line"/>
      <point x="23.936" y="1552.48"/>
      <point x="117.96799999999999" y="1510.072"/>
      <point x="316.128" y="1510.072" type="curve" smooth="yes"/>
      <point x="505.4" y="1510.072"/>
      <point x="607.36" y="1553.128"/>
      <point x="697.88" y="1742.0" type="curve"/>
      <point x="541.8" y="1742.0" type="line"/>
      <point x="502.704" y="1672.272"/>
      <point x="445.592" y="1646.528"/>
    </contour>
    <contour>
      <point x="772.1759999999999" y="2004.0" type="curve"/>
      <point x="624.9839999999999" y="2004.0" type="line"/>
      <point x="599.5360000000001" y="1943.808"/>
      <point x="578.48" y="1932.64"/>
      <point x="539.7760000000001" y="1932.64" type="curve" smooth="yes"/>
      <point x="476.36800000000005" y="1932.64"/>
      <point x="397.11199999999997" y="2005.056"/>
      <point x="295.688" y="2005.056" type="curve" smooth="yes"/>
      <point x="169.34400000000002" y="2005.056"/>
      <point x="119.75200000000001" y="1959.52"/>
      <point x="59.768" y="1796.0" type="curve"/>
      <point x="206.95999999999998" y="1796.0" type="line"/>
      <point x="232.408" y="1856.192"/>
      <point x="253.464" y="1867.36"/>
      <point x="292.168" y="1867.36" type="curve" smooth="yes"/>
      <point x="355.224" y="1867.36"/>
      <point x="434.832" y="1794.944"/>
      <point x="536.256" y="1794.944" type="curve" smooth="yes"/>
      <point x="662.5999999999999" y="1794.944"/>
      <point x="712.192" y="1840.48"/>
    </contour>
  </outline>
</glyph>
<glyph name="uni030C.case" format="2">
  <anchor x="273.704" y="1414.0" name="_UCtop"/>
  <anchor x="412.704" y="1870.0" name="UCtop"/>
  <outline>
    <contour>
      <point x="788.0079999999999" y="1870.0" type="line"/>
      <point x="556.064" y="1870.0" type="line"/>
      <point x="308.704" y="1688.008" type="line"/>
      <point x="379.384" y="1688.008" type="line"/>
      <point x="243.16000000000003" y="1870.0" type="line"/>
      <point x="37.751999999999995" y="1870.0" type="line"/>
      <point x="184.75199999999998" y="1544.0" type="line"/>
      <point x="441.00800000000004" y="1544.0" type="line"/>
    </contour>
  </outline>
</glyph>
<glyph name="uni030F.case" format="2">
  <anchor x="273.704" y="1414.0" name="_UCtop"/>
  <anchor x="412.704" y="1870.0" name="UCtop"/>
  <outline>
    <contour>
      <point x="245.776" y="1544.0" type="line"/>
      <point x="123.144" y="1870.0" type="line"/>
      <point x="-142.392" y="1870.0" type="line"/>
      <point x="-160.464" y="1808.6719999999998" type="line"/>
      <point x="81.56800000000001" y="1544.0" type="line"/>
    </contour>
    <contour>
      <point x="585.7439999999999" y="1544.0" type="line"/>
      <point x="585.144" y="1870.0" type="line"/>
      <point x="330.55199999999996" y="1870.0" type="line"/>
      <point x="315.776" y="1817.208" type="line"/>
      <point x="435.01599999999996" y="1544.0" type="line"/>
    </contour>
  </outline>
</glyph>
<glyph name="uni0311.case" format="2">
  <anchor x="273.704" y="1414.0" name="_UCtop"/>
  <anchor x="412.704" y="1870.0" name="UCtop"/>
  <outline>
    <contour>
      <point x="365.20799999999997" y="1678.552" type="curve" smooth="yes"/>
      <point x="478.08" y="1678.552"/>
      <point x="513.136" y="1645.568"/>
      <point x="508.20799999999997" y="1544.0" type="curve"/>
      <point x="645.1600000000001" y="1544.0" type="line"/>
      <point x="682.752" y="1765.8"/>
      <point x="616.736" y="1872.112"/>
      <point x="402.168" y="1872.112" type="curve" smooth="yes"/>
      <point x="201.54399999999998" y="1872.112"/>
      <point x="89.17599999999999" y="1792.8719999999998"/>
      <point x="-18.104000000000003" y="1544.0" type="curve"/>
      <point x="140.03199999999998" y="1544.0" type="line"/>
      <point x="195.648" y="1645.2160000000001"/>
      <point x="252.632" y="1678.552"/>
    </contour>
  </outline>
</glyph>
<glyph name="uni0312.case" format="2">
  <anchor x="273.704" y="1414.0" name="_UCtop"/>
  <anchor x="412.70399999999995" y="1870.0" name="UCtop"/>
  <outline>
    <contour>
      <point x="494.10400000000004" y="1656.7359999999999" type="curve" smooth="yes"/>
      <point x="494.10400000000004" y="1675.552"/>
      <point x="401.16" y="1682.4959999999999"/>
      <point x="401.16" y="1736.088" type="curve" smooth="yes"/>
      <point x="401.16" y="1770.736"/>
      <point x="427.216" y="1808.832"/>
      <point x="539.408" y="1825.224" type="curve"/>
      <point x="553.5360000000001" y="1916.1999999999998" type="line"/>
      <point x="287.224" y="1890.6399999999999"/>
      <point x="211.32" y="1768.752"/>
      <point x="211.32" y="1656.088" type="curve" smooth="yes"/>
      <point x="211.32" y="1576.368"/>
      <point x="257.448" y="1533.0"/>
      <point x="339.536" y="1533.0" type="curve" smooth="yes"/>
      <point x="438.032" y="1533.0"/>
      <point x="494.10400000000004" y="1598.0720000000001"/>
    </contour>
  </outline>
</glyph>
<glyph name="uni20A6.1" format="2">
  <advance width="1462.0"/>
  <outline>
    <contour>
      <point x="1479.8319999999999" y="623.184" type="line"/>
      <point x="50.632" y="623.184" type="line"/>
      <point x="5.024000000000001" y="473.176" type="line"/>
      <point x="1434.224" y="473.176" type="line"/>
    </contour>
    <contour>
      <point x="1585.608" y="969.4559999999999" type="line"/>
      <point x="156.056" y="969.4559999999999" type="line"/>
      <point x="110.44800000000001" y="819.448" type="line"/>
      <point x="1540.0" y="819.448" type="line"/>
    </contour>
    <contour>
      <point x="1480.7279999999998" y="1276.856" type="line"/>
      <point x="1645.672" y="1316.112" type="line"/>
      <point x="1675.616" y="1414.0" type="line"/>
      <point x="1177.7359999999999" y="1414.0" type="line"/>
      <point x="1147.44" y="1316.112" type="line"/>
      <point x="1288.3120000000001" y="1277.2079999999999" type="line"/>
      <point x="961.768" y="193.632" type="line"/>
      <point x="1020.136" y="251.216" type="line"/>
      <point x="904.088" y="1414.0" type="line"/>
      <point x="359.808" y="1414.0" type="line"/>
      <point x="330.16" y="1316.464" type="line"/>
      <point x="454.96" y="1262.136" type="line"/>
      <point x="110.92" y="137.144" type="line"/>
      <point x="-54.672000000000004" y="97.88799999999999" type="line"/>
      <point x="-83.968" y="0.0" type="line"/>
      <point x="411.968" y="0.0" type="line"/>
      <point x="440.968" y="97.88799999999999" type="line"/>
      <point x="299.44800000000004" y="136.792" type="line"/>
      <point x="657.84" y="1318.56" type="line"/>
      <point x="590.9920000000001" y="1281.472" type="line"/>
      <point x="715.984" y="0.0" type="line"/>
      <point x="1090.912" y="0.0" type="line"/>
    </contour>
  </outline>
</glyph>
<glyph name="uni20AD.lf" format="2">
  <advance width="1638.288"/>
  <outline>
    <contour>
      <point x="1138.08" y="941.488" type="line"/>
      <point x="1014.1600000000001" y="696.7760000000001" type="line"/>
      <point x="1584.488" y="1272.2640000000001" type="line"/>
      <point x="1735.88" y="1316.112" type="line"/>
      <point x="1764.528" y="1414.0" type="line"/>
      <point x="1301.344" y="1414.0" type="line"/>
      <point x="1272.048" y="1316.112" type="line"/>
      <point x="1384.592" y="1289.632" type="line"/>
      <point x="893.368" y="786.8960000000001" type="line"/>
      <point x="838.592" y="659.0640000000001" type="line"/>
      <point x="974.8" y="0.0" type="line"/>
      <point x="1412.696" y="0.0" type="line"/>
      <point x="1441.6960000000001" y="97.888" type="line"/>
      <point x="1308.168" y="156.312" type="line"/>
    </contour>
    <contour>
      <point x="1509.944" y="799.9200000000001" type="line"/>
      <point x="199.264" y="799.9200000000001" type="line"/>
      <point x="153.008" y="649.912" type="line"/>
      <point x="1463.688" y="649.912" type="line"/>
    </contour>
    <contour>
      <point x="921.096" y="1250.448" type="line"/>
      <point x="1104.568" y="1316.112" type="line"/>
      <point x="1134.216" y="1414.0" type="line"/>
      <point x="414.64799999999997" y="1414.0" type="line"/>
      <point x="386.0" y="1316.112" type="line"/>
      <point x="527.4" y="1249.8" type="line"/>
      <point x="196.768" y="163.552" type="line"/>
      <point x="13.296" y="97.88799999999999" type="line"/>
      <point x="-16.352" y="0.0" type="line"/>
      <point x="710.992" y="0.0" type="line"/>
      <point x="739.64" y="97.88799999999999" type="line"/>
      <point x="589.168" y="164.2" type="line"/>
    </contour>
  </outline>
</glyph>
<glyph name="uni20B9.lf" format="2">
  <advance width="1357.872"/>
  <outline>
    <contour>
      <point x="1415.0" y="1078.096" type="line"/>
      <point x="295.28000000000003" y="1078.096" type="line"/>
      <point x="249.024" y="928.088" type="line"/>
      <point x="1368.7440000000001" y="928.088" type="line"/>
    </contour>
    <contour>
      <point x="1192.848" y="1049.456" type="curve" smooth="yes"/>
      <point x="1192.848" y="1163.216"/>
      <point x="1133.96" y="1248.104"/>
      <point x="995.96" y="1276.104" type="curve"/>
      <point x="995.96" y="1263.9920000000002" type="line"/>
      <point x="1468.056" y="1263.9920000000002" type="line"/>
      <point x="1513.664" y="1414.0" type="line"/>
      <point x="397.464" y="1414.0" type="line"/>
      <point x="345.024" y="1244.496" type="line"/>
      <point x="675.024" y="1244.496" type="line" smooth="yes"/>
      <point x="804.824" y="1244.496"/>
      <point x="848.68" y="1207.584"/>
      <point x="848.68" y="1119.4479999999999" type="curve" smooth="yes"/>
      <point x="848.68" y="913.888"/>
      <point x="753.192" y="757.8159999999999"/>
      <point x="541.072" y="757.8159999999999" type="curve" smooth="yes"/>
      <point x="195.112" y="757.8159999999999" type="line"/>
      <point x="143.672" y="576.64" type="line"/>
      <point x="451.01599999999996" y="576.64" type="line" smooth="yes"/>
      <point x="584.6080000000001" y="576.64"/>
      <point x="597.424" y="552.88"/>
      <point x="598.0" y="435.76800000000003" type="curve" smooth="yes"/>
      <point x="600.856" y="189.01600000000002" type="line" smooth="yes"/>
      <point x="600.4879999999999" y="-4.071999999999999"/>
      <point x="671.984" y="-36.256"/>
      <point x="1054.064" y="0.0" type="curve"/>
      <point x="1101.208" y="159.136" type="line"/>
      <point x="990.2800000000001" y="156.672"/>
      <point x="976.7040000000001" y="172.672"/>
      <point x="974.48" y="285.672" type="curve" smooth="yes"/>
      <point x="967.68" y="454.76800000000003" type="line" smooth="yes"/>
      <point x="965.4" y="609.8000000000001"/>
      <point x="919.792" y="671.096"/>
      <point x="710.8240000000001" y="685.744" type="curve"/>
      <point x="734.728" y="672.856" type="line"/>
      <point x="1027.0" y="694.136"/>
      <point x="1192.848" y="856.36"/>
    </contour>
  </outline>
</glyph>
<glyph name="uni20BC.lf" format="2">
  <advance width="1390.448"/>
  <outline>
    <contour>
      <point x="819.0079999999999" y="973.104" type="curve" smooth="yes"/>
      <point x="1019.4319999999999" y="973.104"/>
      <point x="1020.3760000000001" y="890.68"/>
      <point x="788.92" y="0.0" type="curve"/>
      <point x="1129.28" y="0.0" type="line"/>
      <point x="1357.432" y="959.392"/>
      <point x="1214.728" y="1152.832"/>
      <point x="842.432" y="1152.832" type="curve" smooth="yes"/>
      <point x="525.552" y="1152.832"/>
      <point x="298.96000000000004" y="959.392"/>
      <point x="-51.72" y="0.0" type="curve"/>
      <point x="288.288" y="0.0" type="line"/>
      <point x="572.224" y="890.68"/>
      <point x="653.264" y="973.104"/>
    </contour>
    <contour>
      <point x="458.064" y="0.0" type="line"/>
      <point x="614.256" y="0.0" type="line"/>
      <point x="1046.904" y="1414.0" type="line"/>
      <point x="890.064" y="1414.0" type="line"/>
    </contour>
  </outline>
</glyph>
<glyph name="uni20BD.lf" format="2">
  <advance width="1474.5439999999999"/>
  <outline>
    <contour>
      <point x="1304.44" y="534.096" type="line"/>
      <point x="136.024" y="534.096" type="line"/>
      <point x="89.768" y="384.08799999999997" type="line"/>
      <point x="1258.184" y="384.08799999999997" type="line"/>
    </contour>
    <contour>
      <point x="558.5120000000001" y="1249.8" type="line"/>
      <point x="227.88000000000002" y="163.552" type="line"/>
      <point x="27.368000000000002" y="97.88799999999999" type="line"/>
      <point x="-2.2799999999999976" y="0.0" type="line"/>
      <point x="759.144" y="0.0" type="line"/>
      <point x="787.792" y="97.88799999999999" type="line"/>
      <point x="620.2800000000001" y="164.2" type="line"/>
      <point x="1002.392" y="1414.0" type="line"/>
      <point x="428.71999999999997" y="1414.0" type="line"/>
      <point x="400.072" y="1316.112" type="line"/>
    </contour>
    <contour>
      <point x="1001.912" y="869.736" type="curve" smooth="yes"/>
      <point x="239.33599999999998" y="872.976" type="line"/>
      <point x="193.728" y="722.9680000000001" type="line"/>
      <point x="1083.992" y="722.9680000000001" type="line" smooth="yes"/>
      <point x="1393.896" y="722.9680000000001"/>
      <point x="1555.616" y="890.8"/>
      <point x="1555.616" y="1147.096" type="curve" smooth="yes"/>
      <point x="1555.616" y="1309.7440000000001"/>
      <point x="1466.968" y="1414.0"/>
      <point x="1219.632" y="1414.0" type="curve" smooth="yes"/>
      <point x="838.856" y="1414.0" type="line"/>
      <point x="783.384" y="1197.8319999999999" type="line"/>
      <point x="1079.672" y="1197.8319999999999" type="line" smooth="yes"/>
      <point x="1170.1519999999998" y="1197.8319999999999"/>
      <point x="1196.952" y="1160.4959999999999"/>
      <point x="1196.952" y="1097.712" type="curve" smooth="yes"/>
      <point x="1196.952" y="955.592"/>
      <point x="1126.5040000000001" y="869.0880000000001"/>
    </contour>
  </outline>
</glyph>
